<?xml version="1.0" encoding="utf-8"?>
<!-- Generator: Adobe Illustrator 25.4.1, SVG Export Plug-In . SVG Version: 6.00 Build 0)  -->
<svg version="1.1" id="Layer_1" xmlns="http://www.w3.org/2000/svg" xmlns:xlink="http://www.w3.org/1999/xlink" x="0px" y="0px"
	 viewBox="0 0 425 703.6" style="enable-background:new 0 0 425 703.6;" xml:space="preserve">
<style type="text/css">
	.st0{fill:#C0E1EF;}
	.st1{fill:url(#SVGID_1_);}
	.st2{fill:url(#SVGID_00000075152161138554668730000004244065404424755340_);}
	.st3{opacity:0.5;}
	.st4{fill:#5DB6E6;stroke:#192D37;stroke-miterlimit:10;}
	.st5{fill:none;stroke:#192D37;stroke-width:0.35;stroke-miterlimit:10;}
	.st6{fill:none;stroke:#5DB6E6;stroke-linecap:round;stroke-linejoin:round;stroke-miterlimit:10;}
	.st7{fill:none;stroke:#5DB6E6;stroke-width:0.35;stroke-linecap:round;stroke-linejoin:round;stroke-miterlimit:10;}
	.st8{opacity:0.4118;fill:#82C5DF;enable-background:new    ;}
	.st9{opacity:0.4118;fill:#C0E1EF;enable-background:new    ;}
	.st10{fill:none;}
	.st11{fill:url(#SVGID_00000136411962755968098910000012405993727794495911_);}
	.st12{fill:url(#SVGID_00000124158412234633381200000008606908534747442835_);}
	.st13{fill:#FFFFFF;fill-opacity:0;}
	.st14{opacity:1.961000e-02;fill:#FFFFFF;enable-background:new    ;}
	.st15{opacity:3.922000e-02;fill:#FFFFFF;enable-background:new    ;}
	.st16{opacity:5.882000e-02;fill:#FFFFFF;enable-background:new    ;}
	.st17{opacity:7.843000e-02;fill:#FFFFFF;enable-background:new    ;}
	.st18{opacity:9.804000e-02;fill:#FFFFFF;enable-background:new    ;}
	.st19{opacity:0.1177;fill:#FFFFFF;enable-background:new    ;}
	.st20{opacity:0.1373;fill:#FFFFFF;enable-background:new    ;}
	.st21{opacity:0.1569;fill:#FFFFFF;enable-background:new    ;}
	.st22{opacity:0.1765;fill:#FFFFFF;enable-background:new    ;}
	.st23{opacity:0.1961;fill:#FFFFFF;enable-background:new    ;}
	.st24{opacity:0.2157;fill:#FFFFFF;enable-background:new    ;}
	.st25{opacity:0.2353;fill:#FFFFFF;enable-background:new    ;}
	.st26{opacity:0.2549;fill:#FFFFFF;enable-background:new    ;}
	.st27{opacity:0.2745;fill:#FFFFFF;enable-background:new    ;}
	.st28{opacity:0.2941;fill:#FFFFFF;enable-background:new    ;}
	.st29{opacity:0.3137;fill:#FFFFFF;enable-background:new    ;}
	.st30{opacity:0.3333;fill:#FFFFFF;enable-background:new    ;}
	.st31{opacity:0.3529;fill:#FFFFFF;enable-background:new    ;}
	.st32{opacity:0.3726;fill:#FFFFFF;enable-background:new    ;}
	.st33{opacity:0.3922;fill:#FFFFFF;enable-background:new    ;}
	.st34{opacity:0.4118;fill:#FFFFFF;enable-background:new    ;}
	.st35{opacity:0.4314;fill:#FFFFFF;enable-background:new    ;}
	.st36{opacity:0.451;fill:#FFFFFF;enable-background:new    ;}
	.st37{opacity:0.4706;fill:#FFFFFF;enable-background:new    ;}
	.st38{opacity:0.4902;fill:#FFFFFF;enable-background:new    ;}
	.st39{opacity:0.5098;fill:#FFFFFF;enable-background:new    ;}
	.st40{opacity:0.5294;fill:#FFFFFF;enable-background:new    ;}
	.st41{opacity:0.549;fill:#FFFFFF;enable-background:new    ;}
	.st42{opacity:0.5686;fill:#FFFFFF;enable-background:new    ;}
	.st43{opacity:0.5882;fill:#FFFFFF;enable-background:new    ;}
	.st44{opacity:0.6078;fill:#FFFFFF;enable-background:new    ;}
	.st45{opacity:0.6274;fill:#FFFFFF;enable-background:new    ;}
	.st46{opacity:0.6471;fill:#FFFFFF;enable-background:new    ;}
	.st47{opacity:0.6667;fill:#FFFFFF;enable-background:new    ;}
	.st48{opacity:0.6863;fill:#FFFFFF;enable-background:new    ;}
	.st49{opacity:0.7059;fill:#FFFFFF;enable-background:new    ;}
	.st50{opacity:0.7255;fill:#FFFFFF;enable-background:new    ;}
	.st51{opacity:0.7451;fill:#FFFFFF;enable-background:new    ;}
	.st52{opacity:0.7647;fill:#FFFFFF;enable-background:new    ;}
	.st53{opacity:0.7843;fill:#FFFFFF;enable-background:new    ;}
	.st54{opacity:0.8039;fill:#FFFFFF;enable-background:new    ;}
	.st55{opacity:0.8235;fill:#FFFFFF;enable-background:new    ;}
	.st56{opacity:0.8431;fill:#FFFFFF;enable-background:new    ;}
	.st57{opacity:0.8627;fill:#FFFFFF;enable-background:new    ;}
	.st58{opacity:0.8824;fill:#FFFFFF;enable-background:new    ;}
	.st59{opacity:0.902;fill:#FFFFFF;enable-background:new    ;}
	.st60{opacity:0.9216;fill:#FFFFFF;enable-background:new    ;}
	.st61{opacity:0.9412;fill:#FFFFFF;enable-background:new    ;}
	.st62{opacity:0.9608;fill:#FFFFFF;enable-background:new    ;}
	.st63{opacity:0.9804;fill:#FFFFFF;enable-background:new    ;}
	.st64{fill:#FFFFFF;}
	.st65{font-family:'ArialMT';}
	.st66{font-size:21.1837px;}
	.st67{fill:url(#SVGID_00000151535672084312034200000008746499331734528130_);}
	.st68{display:none;}
	.st69{display:inline;fill:#C0E1EF;}
	.st70{display:inline;}
	.st71{fill:#C0E1EF;fill-opacity:0;}
	.st72{opacity:1.961000e-02;fill:#C0E1EF;enable-background:new    ;}
	.st73{opacity:3.922000e-02;fill:#C0E1EF;enable-background:new    ;}
	.st74{opacity:5.882000e-02;fill:#C0E1EF;enable-background:new    ;}
	.st75{opacity:7.843000e-02;fill:#C0E1EF;enable-background:new    ;}
	.st76{opacity:9.804000e-02;fill:#C0E1EF;enable-background:new    ;}
	.st77{opacity:0.1177;fill:#C0E1EF;enable-background:new    ;}
	.st78{opacity:0.1373;fill:#C0E1EF;enable-background:new    ;}
	.st79{opacity:0.1569;fill:#C0E1EF;enable-background:new    ;}
	.st80{opacity:0.1765;fill:#C0E1EF;enable-background:new    ;}
	.st81{opacity:0.1961;fill:#C0E1EF;enable-background:new    ;}
	.st82{opacity:0.2157;fill:#C0E1EF;enable-background:new    ;}
	.st83{opacity:0.2353;fill:#C0E1EF;enable-background:new    ;}
	.st84{opacity:0.2549;fill:#C0E1EF;enable-background:new    ;}
	.st85{opacity:0.2745;fill:#C0E1EF;enable-background:new    ;}
	.st86{opacity:0.2941;fill:#C0E1EF;enable-background:new    ;}
	.st87{opacity:0.3137;fill:#C0E1EF;enable-background:new    ;}
	.st88{opacity:0.3333;fill:#C0E1EF;enable-background:new    ;}
	.st89{opacity:0.3529;fill:#C0E1EF;enable-background:new    ;}
	.st90{opacity:0.3726;fill:#C0E1EF;enable-background:new    ;}
	.st91{opacity:0.3922;fill:#C0E1EF;enable-background:new    ;}
	.st92{opacity:0.4314;fill:#C0E1EF;enable-background:new    ;}
	.st93{opacity:0.451;fill:#C0E1EF;enable-background:new    ;}
	.st94{opacity:0.4706;fill:#C0E1EF;enable-background:new    ;}
	.st95{opacity:0.4902;fill:#C0E1EF;enable-background:new    ;}
	.st96{opacity:0.5098;fill:#C0E1EF;enable-background:new    ;}
	.st97{opacity:0.5294;fill:#C0E1EF;enable-background:new    ;}
	.st98{opacity:0.549;fill:#C0E1EF;enable-background:new    ;}
	.st99{opacity:0.5686;fill:#C0E1EF;enable-background:new    ;}
	.st100{opacity:0.5882;fill:#C0E1EF;enable-background:new    ;}
	.st101{opacity:0.6078;fill:#C0E1EF;enable-background:new    ;}
	.st102{opacity:0.6274;fill:#C0E1EF;enable-background:new    ;}
	.st103{opacity:0.6471;fill:#C0E1EF;enable-background:new    ;}
	.st104{opacity:0.6667;fill:#C0E1EF;enable-background:new    ;}
	.st105{opacity:0.6863;fill:#C0E1EF;enable-background:new    ;}
	.st106{opacity:0.7059;fill:#C0E1EF;enable-background:new    ;}
	.st107{opacity:0.7255;fill:#C0E1EF;enable-background:new    ;}
	.st108{opacity:0.7451;fill:#C0E1EF;enable-background:new    ;}
	.st109{opacity:0.7647;fill:#C0E1EF;enable-background:new    ;}
	.st110{opacity:0.7843;fill:#C0E1EF;enable-background:new    ;}
	.st111{opacity:0.8039;fill:#C0E1EF;enable-background:new    ;}
	.st112{opacity:0.8235;fill:#C0E1EF;enable-background:new    ;}
	.st113{opacity:0.8431;fill:#C0E1EF;enable-background:new    ;}
	.st114{opacity:0.8627;fill:#C0E1EF;enable-background:new    ;}
	.st115{opacity:0.8824;fill:#C0E1EF;enable-background:new    ;}
	.st116{opacity:0.902;fill:#C0E1EF;enable-background:new    ;}
	.st117{opacity:0.9216;fill:#C0E1EF;enable-background:new    ;}
	.st118{opacity:0.9412;fill:#C0E1EF;enable-background:new    ;}
	.st119{opacity:0.9608;fill:#C0E1EF;enable-background:new    ;}
	.st120{opacity:0.9804;fill:#C0E1EF;enable-background:new    ;}
	.st121{display:none;fill:url(#SVGID_00000003091545914676028790000011478634926812690058_);}
	.st122{display:none;fill:url(#SVGID_00000053529182179715710750000006897518617922428802_);}
	.st123{display:inline;fill:#FFFFFF;fill-opacity:0;}
	.st124{display:inline;opacity:1.961000e-02;fill:#FFFFFF;enable-background:new    ;}
	.st125{display:inline;opacity:3.922000e-02;fill:#FFFFFF;enable-background:new    ;}
	.st126{display:inline;opacity:5.882000e-02;fill:#FFFFFF;enable-background:new    ;}
	.st127{display:inline;opacity:7.843000e-02;fill:#FFFFFF;enable-background:new    ;}
	.st128{display:inline;opacity:9.804000e-02;fill:#FFFFFF;enable-background:new    ;}
	.st129{display:inline;opacity:0.1177;fill:#FFFFFF;enable-background:new    ;}
	.st130{display:inline;opacity:0.1373;fill:#FFFFFF;enable-background:new    ;}
	.st131{display:inline;opacity:0.1569;fill:#FFFFFF;enable-background:new    ;}
	.st132{display:inline;opacity:0.1765;fill:#FFFFFF;enable-background:new    ;}
	.st133{display:inline;opacity:0.1961;fill:#FFFFFF;enable-background:new    ;}
	.st134{display:inline;opacity:0.2157;fill:#FFFFFF;enable-background:new    ;}
	.st135{display:inline;opacity:0.2353;fill:#FFFFFF;enable-background:new    ;}
	.st136{display:inline;opacity:0.2549;fill:#FFFFFF;enable-background:new    ;}
	.st137{display:inline;opacity:0.2745;fill:#FFFFFF;enable-background:new    ;}
	.st138{display:inline;opacity:0.2941;fill:#FFFFFF;enable-background:new    ;}
	.st139{display:inline;opacity:0.3137;fill:#FFFFFF;enable-background:new    ;}
	.st140{display:inline;opacity:0.3333;fill:#FFFFFF;enable-background:new    ;}
	.st141{display:inline;opacity:0.3529;fill:#FFFFFF;enable-background:new    ;}
	.st142{display:inline;opacity:0.3726;fill:#FFFFFF;enable-background:new    ;}
	.st143{display:inline;opacity:0.3922;fill:#FFFFFF;enable-background:new    ;}
	.st144{display:inline;opacity:0.4118;fill:#FFFFFF;enable-background:new    ;}
	.st145{display:inline;opacity:0.4314;fill:#FFFFFF;enable-background:new    ;}
	.st146{display:inline;opacity:0.451;fill:#FFFFFF;enable-background:new    ;}
	.st147{display:inline;opacity:0.4706;fill:#FFFFFF;enable-background:new    ;}
	.st148{display:inline;opacity:0.4902;fill:#FFFFFF;enable-background:new    ;}
	.st149{display:inline;opacity:0.5098;fill:#FFFFFF;enable-background:new    ;}
	.st150{display:inline;opacity:0.5294;fill:#FFFFFF;enable-background:new    ;}
	.st151{display:inline;opacity:0.549;fill:#FFFFFF;enable-background:new    ;}
	.st152{display:inline;opacity:0.5686;fill:#FFFFFF;enable-background:new    ;}
	.st153{display:inline;opacity:0.5882;fill:#FFFFFF;enable-background:new    ;}
	.st154{display:inline;opacity:0.6078;fill:#FFFFFF;enable-background:new    ;}
	.st155{display:inline;opacity:0.6274;fill:#FFFFFF;enable-background:new    ;}
	.st156{display:inline;opacity:0.6471;fill:#FFFFFF;enable-background:new    ;}
	.st157{display:inline;opacity:0.6667;fill:#FFFFFF;enable-background:new    ;}
	.st158{display:inline;opacity:0.6863;fill:#FFFFFF;enable-background:new    ;}
	.st159{display:inline;opacity:0.7059;fill:#FFFFFF;enable-background:new    ;}
	.st160{display:inline;opacity:0.7255;fill:#FFFFFF;enable-background:new    ;}
	.st161{display:inline;opacity:0.7451;fill:#FFFFFF;enable-background:new    ;}
	.st162{display:inline;opacity:0.7647;fill:#FFFFFF;enable-background:new    ;}
	.st163{display:inline;opacity:0.7843;fill:#FFFFFF;enable-background:new    ;}
	.st164{display:inline;opacity:0.8039;fill:#FFFFFF;enable-background:new    ;}
	.st165{display:inline;opacity:0.8235;fill:#FFFFFF;enable-background:new    ;}
	.st166{display:inline;opacity:0.8431;fill:#FFFFFF;enable-background:new    ;}
	.st167{display:inline;opacity:0.8627;fill:#FFFFFF;enable-background:new    ;}
	.st168{display:inline;opacity:0.8824;fill:#FFFFFF;enable-background:new    ;}
	.st169{display:inline;opacity:0.902;fill:#FFFFFF;enable-background:new    ;}
	.st170{display:inline;opacity:0.9216;fill:#FFFFFF;enable-background:new    ;}
	.st171{display:inline;opacity:0.9412;fill:#FFFFFF;enable-background:new    ;}
	.st172{display:inline;opacity:0.9608;fill:#FFFFFF;enable-background:new    ;}
	.st173{display:inline;opacity:0.9804;fill:#FFFFFF;enable-background:new    ;}
	.st174{display:inline;fill:#FFFFFF;}
	.st175{display:none;opacity:0.5;}
	.st176{display:inline;fill:#82C5DF;stroke:#192D37;stroke-miterlimit:10;}
	.st177{display:inline;fill:#5EB6E6;stroke:#192D37;stroke-miterlimit:10;}
	.st178{display:inline;fill:none;stroke:#192D37;stroke-width:0.35;stroke-miterlimit:10;}
	.st179{display:inline;fill:none;stroke:#5EB6E6;stroke-linecap:round;stroke-linejoin:round;stroke-miterlimit:10;}
	
		.st180{display:inline;fill:none;stroke:#5EB6E6;stroke-width:0.35;stroke-linecap:round;stroke-linejoin:round;stroke-miterlimit:10;}
	.st181{display:none;opacity:0.4118;fill:#82C5DF;enable-background:new    ;}
	.st182{display:none;opacity:0.4118;fill:#C0E1EF;enable-background:new    ;}
	.st183{display:inline;fill:none;}
	.st184{display:none;fill:url(#SVGID_00000140736494805547994560000011213382342314492577_);}
	.st185{font-family:'MyriadPro-Regular';}
	.st186{font-size:15px;}
</style>
<g>
	<rect x="38.2" y="399.2" class="st0" width="348" height="224.2"/>
</g>
<linearGradient id="SVGID_1_" gradientUnits="userSpaceOnUse" x1="-879.4421" y1="198.9592" x2="-811.0753" y2="198.9592" gradientTransform="matrix(-1 0 0 -1 -777.8755 703.8898)">
	<stop  offset="0" style="stop-color:#FFFFFF;stop-opacity:0"/>
	<stop  offset="0.8914" style="stop-color:#FFFFFF"/>
</linearGradient>
<polygon class="st1" points="33.2,645.1 101.6,645.1 101.6,364.7 33.2,364.7 "/>
<linearGradient id="SVGID_00000111182380768385438270000006834576226020619684_" gradientUnits="userSpaceOnUse" x1="-232.2524" y1="27.0181" x2="-210.7517" y2="27.0181" gradientTransform="matrix(0 -1 -1 0 242.6538 186.699)">
	<stop  offset="0" style="stop-color:#FFFFFF;stop-opacity:0"/>
	<stop  offset="0.8914" style="stop-color:#FFFFFF"/>
</linearGradient>
<polygon style="fill:url(#SVGID_00000111182380768385438270000006834576226020619684_);" points="407,397.5 407,419 24.3,419 
	24.3,397.5 "/>
<g class="st3">
	<path class="st4" d="M149.1,495.7c0,0-0.4,2.9-1.1,3.5c-0.8,0.6-2.6,1-3.6,2.7s-2.6,3.5-1.8,4.5c0.9,1,0.2,1.5,2.1-0.8
		c1.9-2.3,1.1,0.7,1.4,1.6s0.2,2.7,1.2,0.1s1.8-6.2,2-4c0.1,2.2-0.4,3.5,0.2,4.3c0.6,0.8,0.9-2.2,1.7-3.4c0.7-1.3,1,1.9,1.3,2.8
		c0.3,0.8,1.1,1.5,1.4-1.9c0.3-3.4-0.5-2.6,0-4.6c0.6-1.9,1.2-3.6,1.2-3.6l0.1-2.2l-5.6-1.8L149.1,495.7z"/>
	<path class="st4" d="M78.8,460.1c0,0,0.1-1.9,1.4-2.7c1.3-0.8,1.4-0.8,2.8-2.1c1.4-1.3,2.7-2.1,3.7-1.7s0.8-0.3,2.8-0.8
		s2.6-1,3.4-0.4s1.9-1,2.9-0.3s2.2,0,2.9,0.3c0.7,0.3,1.7,0.2,2.5,0.2s2.3-1.2,3.1-0.6c0.8,0.6,2,0.9,2.4,1.2s2.5-0.7,2.9-0.2
		s1.7,0.2,2.3,0.8c0.7,0.6,1.3-0.2,2.8,0.1c1.5,0.3,1.2,0.3,3,0.5s2.8,0.8,4.1,0.7c1.3,0,3.3,0.2,3.9,0.1c0.7-0.2,0.2-0.1,1.4-1.3
		c1.2-1.2,2.2-2.4,2.6-1.2c0.4,1.2-0.1,1.7,1.3,1.4c1.3-0.3,2.7-0.2,2.7-0.2s-0.2-0.5-0.1-1.6c0.1-1.1,0.8-1.4,1.5-1.2
		c0.8,0.2-0.5,0.2-0.9-1.5s-1.6-2.9-0.2-2.7c1.4,0.1,1.9,1.4,2.3,1.6c0.4,0.2,0.6-1.1,1.2-2.1c0.7-1,1.4-1.6,1.7-0.4
		c0.2,1.1,0.7,2.8,0.7,2.8s1.3-1.5,1.9-2.1c0.6-0.7,1.6-1.4,1.5-0.2c-0.1,1.2-0.5,2.4-0.5,2.9c0.1,0.5,0.8,0,1.4-0.8
		c0.6-0.8,0.2-1.5,0.6-0.8c0.5,0.7,0.2,1.8,0.7,1.7c0.5-0.1,2.6,1.2,2.5,0.2s-0.5-1.8-0.1-3.3c0.5-1.5,1.4-2.1,1.6-0.9
		c0.2,1.1,2.6-2.7,3.8-1.1c1.2,1.7,1.3,3.3,1.3,3.3s2-2.9,2.7-1.5c0.6,1.4,0,2.4,0.4,2.8s2.6-3.2,3-2s0.2,1.9,0.6,2.3
		c0.4,0.4,1.6-2.3,2.1-1.9s0,0.9,0.3,1.5s0,1.4,1.8,0.2c1.8-1.2,3.4-2.6,3.5-1.6s-0.5,3.2-0.5,3.2s2.8-3.3,2.8-1.9s-0.1,1.9,0.1,2.5
		s3.8-0.6,2.6,0.5c-1.2,1.2-2.5,2.1-2.9,2.5s-1.2,1.2-0.3,1.4c0.9,0.2,0.8,2.8,1.8,0.5s2-4.8,2.1-3.3c0.2,1.5-0.3,1.5,1.2,0.9
		s3.5-1,2.8,0s3.1-0.3,1.1,1.5s-3.7,2-2.9,2.4c0.9,0.3,3.2,0.5,2,1.7s2.4,2.2,2.2,0.9c-0.2-1.3-1-4.3,0.3-4.3s1.3,1.1,1.7,1.8
		c0.3,0.7,0.5-1.5,1.8-1c1.3,0.4,2.1-0.2,1.3,1.4s0,1.4,1.6,2.2c1.6,0.8,1.2,1-0.7,1.7s-1.1,0.9-0.2,1.7c0.9,0.8,1.7,3.8,2.1,1.9
		c0.4-2,1.7-4.4,1.8-2.7c0.1,1.6-1,2.5,1,2.1s4.2-1.4,2.7-0.1c-1.6,1.4-3.1,2-2.1,2.2c1.1,0.2,1.5-0.3,2,0.4
		c0.5,0.7-0.1,1.2-0.7,1.6c-0.5,0.4,3,2.4,4.1,2c1.2-0.4,3.3,0.7,2.2,1.4c-1.1,0.7-2.3,1.2-1,1.7c1.3,0.4,4.3,0,3.4,0.9
		c-0.8,0.9-1.4,1.4-0.6,1.9c0.8,0.5,2.9,0.9,2.4,1.9s0.5,2.3,0.5,2.3s1.1,1.6,2.4,2.2c1.3,0.6,2.6,1.2,2,1.8
		c-0.6,0.7,0.5,0.6,1.2,2.5s1.4,2.5,0.8,3.5c-0.5,1,0.1,0.3,0.6,2.2s0.4,0.2,2.7,1.2s2.8,0.8,3.1,1.8s1,1,2,2.5s-0.3,1.5,2.5,1
		s2.8-0.8,3.8,0.5s1.5,1.6,1.3,2.8c-0.3,1.2-0.6,1.9,1.7,1.5c2.3-0.5,2.4-1.5,3,0.2s0.9,3.8,1.8,3.2c0.9-0.6,3.1-2.6,4-1
		s2.3,1.6,3.5,2.9s1.2,1,3.4,1.5c2.3,0.5,3.2,0.3,2.9,1.7c-0.3,1.4,0.6,1.5,2.8,1.4s3.3,0.2,3.5,0.7s0.1,1.9,2.5,1.3
		c2.5-0.6,4-1,3.7,0.3c-0.3,1.4,0.3,2.4,1.6,2.2c1.3-0.2,1.2-0.7,2.8,0.1c1.6,0.8,1.8,0.4,3.4,1.5s5.6,1,7.7,2.9s2.3,2.4,4.1,2
		c1.8-0.4,4,0.4,4.6,1.2s0.9,1.5,3.7,1.6c2.8,0.1,5.1-1,5.8,0.6c0.8,1.6-0.3,0.7,2.3,1.6c2.6,0.9,3.2-0.4,4.3,1.1
		c1.1,1.5,2.1-0.2,3.6,1.7s3.2-0.4,3.5,1.1s1.7,2.9-1.1,3.1s-5.8-0.8-8.4-1.3s-0.9-0.3-4.5-0.5c-3.6-0.1-5.7-1.4-6.2-1.8
		c-0.5-0.4,1.2,0.4-3.3,0.1c-4.5-0.3-3.9-0.8-7.6-1.8s-3.3-0.7-7.8-1.2s-4.3-1.1-8.1-1.7c-3.8-0.7-3.5-0.6-8-0.9
		c-4.5-0.3-5.1-1.2-6.9-1.5c-1.8-0.2-1.9-1.2-3.6-0.6c-1.7,0.6-12.1-1.7-14.5-2.3c-2.4-0.7-7.1-0.6-7.6-1.8s-2.7,0.1-4.2-0.1
		c-1.5-0.2-6-0.8-6-0.8s3.7,1.3,4.3,2.5c0.7,1.2,1.6,1.9,3.6,1.6c2-0.4,4.1-0.5,6.4,0.9c2.4,1.5,3.5,1.1,5.6,3.1s2.5,1.6,3.7,4.2
		c1.2,2.6,1.3,2,1.5,4.6s0.2,3.7,0.2,3.7s-0.9-0.2,0,1.4c0.9,1.6,3,4.4,0.5,3.6c-2.5-0.9-4.1-2-4.1-2s0.1,3.8-0.8,3.8
		c-0.9,0-1.9-0.6-2.8-2.3c-0.9-1.8-2.3,0.6-2.3,0.6s-1.5-0.2-1.9-2.1c-0.4-2-0.4-1.8-1.1-3.7c-0.7-1.9-1.5-3.3-1.5-3.3
		s-4.2,1.9-6.1,2.1c-1.9,0.2-3.3,1.6-6.1,2s-5.4,0.3-6,0s0.9,1.6-3.1,1.2c-4-0.4-10.6-1-12.5-5.4c-0.2-1.3-4.7-3.8-6.2-8.7
		c0.1-0.3-1-3.5-1.4-5c-0.5-1.5-0.8-3.8-0.8-3.8s-6.3,4.3-10.3,2.5s-5.1-2.7-6.1-5.1c-1.1-2.4-2.1-3.6-2-6.1c0.1-2.5,0-4.3-0.5-5.1
		c-0.4-0.9-0.7-0.9-2-3.1s-2.1-6.1-3.6-6.9c-1.4-0.8-0.4-0.9-4.1-0.9s-5,0.5-8.5-0.9s-5.8-1.4-8.1-4.7c-2.3-3.3-4.6-4.8-5.8-6.8
		c-1.1-2-2.6-3.9-3-4.1s-1.1-0.1-3.2-0.5c-2.1-0.5-4.1-1.4-5.5-2.3s-4.8-2.8-6.4-3.1c-1.7-0.4-2-1.1-3.6-0.8c-1.6,0.3-4.6-0.4-6.7-1
		s-1.8,0.4-4.2,0.5c-2.4,0.1-3.5-0.6-4.1-0.6s-2.2,0.1-4.1,0.5c-1.8,0.4-1.8,0.5-4.4,0.1s-2.6-0.4-4.2-0.9s-2.6-0.5-2.3-1.8
		c0.3-1.2-0.5-1.4-1.6-1.9c-1.1-0.6-1.7-0.2-2.3-2.4c-0.6-2.2-1.8-2.6,0.1-3.3S78.8,460.1,78.8,460.1z"/>
	<path class="st5" d="M79.7,458.7c-0.3,0.3-0.1,0.9,0.4,1c0.4,0.1,0.9,0,1.2-0.3c0.7-0.5,1.4-1.2,2.2-1.3c0.3,0,0.7,0,1,0.1
		c0.7,0.2,1.4,0.5,2,0.8"/>
	<path class="st5" d="M81.8,460.9c0.3,0.5,0.9,0.8,1.5,0.7s1.1-0.4,1.4-0.9c-0.1-0.3-0.6-0.5-0.9-0.3"/>
	<path class="st5" d="M76.1,467.7c0.6,0.2,1.1-0.1,1.7-0.4c2.1-0.9,4.4-1,6.6-0.3c0,0.4-0.4,0.7-0.8,0.8c-0.4,0.1-0.8,0-1.2,0
		c-1.1,0-2.2,0.3-3.1,0.9"/>
	<path class="st5" d="M203.4,485.1c1.5,1,2.6,2.5,3,4.2c0.5,1.8,0.2,4.3,0.1,6.2c-0.1,1.6-1.3,3.4-1.9,0.9c-0.5-1.9-0.5-4-2.3-5.5
		c0.4,0.3,0.8,0.5,1.3,0.6c-0.4-0.1-0.7-0.2-1.1-0.2"/>
	<path class="st5" d="M136.3,466.4c-0.3,2.9,1.1,5.7,3.3,7.7c2.2,1.9,4.9,3.1,7.7,3.8c2.5,0.7,5.2,1.2,7.8,1.4
		c0.6,0,1.2,0.1,1.7-0.3c0.3-0.2,0.5-0.6,0.8-0.9c1.1-1.2,3-0.8,4.5-0.3c3.9,1.1,7.9,1.9,11.9,2.3c0.7,0.1,1.4,0.1,2,0.3
		c0.9,0.3,1.7,0.9,2.4,1.5c3.2,2.6,6.2,5.7,10.1,6.9c1.9,0.6,4.2,0.8,5.6,2.1c1.6,1.5,1.8,3.8,2.3,6s1.7,4.5,3.9,4.7
		c1.5-2.2-1.2-5.5,0.1-7.9c1.7,1.1,2.9,3.1,2.9,5.2c0.7-0.3,1.1-1.3,0.8-2"/>
	<path class="st5" d="M148.8,457.2c3.4-0.5,7.1,0.6,9.6,2.9c1.1,1.1,2.1,2.3,3.3,3.2c2.3,1.6,5.4,1.6,8.1,2.3c2.5,0.6,4.8,1.8,7,3.1
		c1.6,0.9,3.2,1.7,4.6,2.9c0.8,0.7,1.6,1.5,2.5,2.2c2.2,1.7,5,2.4,7.2,4.2c2.1,1.7,3.6,4.4,6.2,5.3c2,0.7,4.8,0.4,5.9,2.3"/>
	<path class="st5" d="M134.5,453.5c6.8,1.5,14,0.3,20.9,1.1c2.2,0.3,4.4,0.8,6.6,1.3c4.1,1,8.2,2.2,12,3.9c4.4,1.9,8.6,4.6,12.2,7.8
		"/>
	<path class="st5" d="M188.5,468.1c4.4,2.1,6.6,7,9.4,10.9c0.2,0.3,0.5,0.6,0.8,0.9c0.3,0.2,0.6,0.3,0.9,0.5
		c2.8,1.3,5.1,3.5,6.6,6.2"/>
	<path class="st5" d="M151.3,495.3c2.2-0.9,3.9-2.8,4.6-5.1"/>
	<path class="st5" d="M152.5,491.7c-1,1.1-2.2,2.1-3.5,2.8c-0.6,0.3-1.3,0.5-1.9,0.2"/>
	<path class="st5" d="M147.3,492.9c-0.4,1.1-1.3,2-2.3,2.4"/>
	<path class="st5" d="M161.4,507.1c2.4,1.5,3.7,4.3,6,6c1.6,1.1,3.6,1.6,5.5,1.9c1.6,0.3,3.2,0.5,4.7,0.7"/>
	<path class="st5" d="M170.6,517c1.2,0.3,2.4,0.5,3.6,0.7c0.5,0.1,1.3,0.1,1.4-0.5"/>
	<path class="st5" d="M174.7,516.5c0.9,0.5,2,0.8,3,0.6"/>
	<path class="st5" d="M171.6,519.2c1.3,0.3,2.8,0.3,4.1-0.1"/>
	<path class="st5" d="M173.1,521c1-0.3,2-0.5,3-0.8"/>
	<path class="st5" d="M181.7,493.4c-2.5,4.8-2.5,10.4-2.5,15.8c0,3.4,0,6.8,0.1,10.1c0,0.3,0.1,0.6,0.3,0.6c0.3,0,0.2-0.5,0-0.3"/>
	<path class="st5" d="M207.2,503.6c1.8,3.6-0.3,7.7,0.1,11.5c0.2,1.7,1,3.4,1.2,5.1c0.3,2.1-0.8,3.7-2.2,5.1c-1.4,1.5-3,3.1-5,3.4"
		/>
	<path class="st5" d="M207.6,517.5c-0.4,2.7-2.6,5-5.2,5.6"/>
	<path class="st5" d="M208.2,522.5c0.2,3-0.1,6.1-0.8,9c-0.2,0.9-0.5,1.9-1,2.7c-0.7,1-1.7,1.7-2.6,2.4"/>
	<path class="st5" d="M188.7,538.9c1.9,0.1,3.7-0.7,5.1-1.9c1.4-1.2,2.4-2.9,3.2-4.6"/>
	<path class="st5" d="M192.8,538.3c1.4-0.2,2.6-0.9,3.6-1.8c1-0.9,1.8-2.1,2.5-3.3"/>
	<path class="st5" d="M206.8,540.9c3.4-2.6,2.1-5.6,2.5-9.1"/>
	<path class="st5" d="M208,534.9c-0.4,3-2.4,5.7-5.1,6.9"/>
	<path class="st5" d="M209.9,521c0.6,0.2,1.3,0.1,1.9-0.2c0.6-0.3,1-0.8,1.4-1.4c2.2-3,3.2-6.8,2.8-10.5"/>
	<path class="st5" d="M226.8,505c0.4,4.5-1.2,9.2-4.2,12.6"/>
	<path class="st5" d="M233.2,508.4c0.2-0.1,0.4,0.2,0.4,0.4c0.8,3.5-0.2,7.2-2.4,10"/>
	<path class="st5" d="M241.6,511.3c1.3,3.7,0.7,8-1.4,11.3"/>
	<path class="st5" d="M247.8,515.6c0.2-0.2,0.4,0.1,0.5,0.4c0.8,3.1,0.2,6.6-1.5,9.3"/>
	<path class="st5" d="M255,517.3c0.8,2.9,0.2,6.2-1.6,8.6"/>
	<path class="st5" d="M261.2,519.6c1.1,2.3,1.1,5.1-0.2,7.3"/>
	<path class="st5" d="M269.2,521.8c-0.2,0.6,0,1.3,0.1,1.9c0.5,2.1,0,4.5-1.3,6.3"/>
	<path class="st5" d="M275.9,524.7c0.3,1.5,0.3,3,0,4.5c-0.2,1.1-0.7,2.2-1.7,2.7"/>
	<path class="st5" d="M283,526.7c0.8,2.2,0.3,4.8-1.4,6.4"/>
	<path class="st5" d="M290.1,528.5c0.1-0.1-0.2-0.2-0.2-0.1c-0.1,0.1,0,0.2,0,0.4c0.7,1.8,0.3,4-1,5.4"/>
	<path class="st5" d="M296.2,531.1c0.7,1.4,0.3,3.3-0.9,4.2"/>
	<path class="st5" d="M301.3,532.9c0.5,0.2,0.8,0.9,0.8,1.5c0,1-0.6,1.9-1.4,2.4"/>
	<path class="st5" d="M209.7,496.9c-0.8,1.9-0.4,4-0.2,6c0.3,3.1-0.2,6.2-1.4,9.1"/>
	<path class="st5" d="M211.9,500.8c-0.8,1.7-0.4,3.7-0.3,5.6c0.1,3-0.7,6-2.4,8.6"/>
	<path class="st5" d="M203.3,488.6c1.8,1,2.9,3,2.9,5"/>
	<path class="st5" d="M94.2,465.6c0.5,2.3,2.7,4.1,5.1,3.9"/>
	<path class="st5" d="M97.9,465.7c1.2,1.8,3,3.2,5,3.9"/>
	<path class="st5" d="M113.7,469.2c1,1.6,2.7,2.8,4.5,3.2"/>
	<path class="st5" d="M121,472.4c0.3,1.5,1.3,2.9,2.7,3.6"/>
	<path class="st5" d="M125,472.9c0.5,2.8,1.6,5.5,3.1,8"/>
	<path class="st5" d="M131,481.1c1,2.7,2.9,5.2,5.3,6.8"/>
</g>
<g>
	<path class="st6" d="M195.7,40.8c-0.6-0.3-1.2-0.6-1.8-0.9c-4.7,3.7-6.9,10.3-5.3,16.1c-1.3-1-3.2-0.7-4.5,0.3s-2,2.5-2.6,4
		c-1.4,3.5-2.1,8.1,0.7,10.7c0.8,0.7,1.8,1.2,2.5,2c2.2,2.4,1.1,6.2,1.4,9.4c0.5,5.7,6.7,10.2,12.3,9c-1.8,2.1-1,5.4,1,7.4
		c1.9,1.9,4.7,2.7,7.3,3.5"/>
	<path class="st6" d="M195.7,44.3c-0.1-3.3,1.6-6.5,4.2-8.4c2.6-1.9,6.2-2.4,9.3-1.3c1.6-6.1,8.2-9.6,14.4-11
		c3.9-0.9,8.1-1.2,11.9,0.1c3.8,1.3,7.1,4.5,7.7,8.5"/>
	<path class="st6" d="M238.4,34.5c2.8-3.9,8.1-5.8,12.7-4.4c-0.5-2.5,0.6-5.1,2.4-6.8c1.8-1.7,4.3-2.7,6.8-3.1
		c3.7-0.7,7.7-0.5,11.1,1.1s6.2,4.8,7,8.5c0.1,0.7,0.2,1.5,0.3,2.2"/>
	<path class="st6" d="M238.9,25.2c2.2-4.1,9.3-5.1,13.2-1.7"/>
	<path class="st7" d="M266.6,44.3c-0.7-5,2.3-10.3,7-12.3s10.6-0.4,13.7,3.6c0.2,0.3,0.5,0.7,0.9,0.6c0.4-0.1,0.2-0.9-0.1-0.6"/>
	<path class="st7" d="M259.3,33.2c1.3-2,3.7-3.3,6.1-3.3s4.8,1.2,6.2,3.2c0.3-0.1,0.3-0.6,0.1-0.7"/>
	<path class="st6" d="M277.6,25.7c4.4-4.7,12.7-5,17.3-0.5c4.7-5.9,15.5-5,19.2,1.6c5.2-5.6,13.4-8.2,20.9-6.6
		c5.2,1.1,10.5,5.7,9.2,10.8c7-1,14.4,4.2,15.8,11.1c3.8,0,7,3.9,6.5,7.6c5.1,1.4,9.3,5.6,10.7,10.7c1.3,5.1-0.3,10.9-4,14.6"/>
	<path class="st7" d="M283.1,41c4.3-4.6,10.5-7.6,16.8-8c6.3-0.5,12.8,1.5,17.8,5.5"/>
	<path class="st7" d="M291.8,29.1c-0.6,0-0.4-1,0.1-1.4c3.4-2.9,8.5-3.5,12.4-1.4"/>
	<path class="st7" d="M309.4,48.8c2.1-6,6.9-11.1,12.8-13.5c4.7-1.9,10.4-2.1,14.7,0.6c4.3,2.7,6.7,8.6,4.4,13.2
		c-0.1-0.4-0.1-0.8-0.2-1.2"/>
	<path class="st7" d="M341.1,41.4c2.9-1,6.3-0.4,8.7,1.5c2.4,1.9,3.8,5,3.6,8c2.3-1,5.1,0.2,6.4,2.3c1.4,2.1,1.6,4.7,1.3,7.1"/>
	<path class="st6" d="M371.1,69.1c2.1,2.9,3.5,6.3,4.1,9.8c0.4,2.4,0.3,4.9-0.9,7c-1.1,1.9-3.2,3.3-5.4,3.5c-2.2,0.2-4.5-0.8-6-2.5
		c-0.5,3.4-3.5,6.3-6.9,6.5s-6.8-2.9-6.6-6.3"/>
	<path class="st7" d="M199.4,49.4c-2.1,3.6-2.1,8.4-0.1,12c-2.1,1.1-4,2.7-4.9,4.8c-1,2.1-0.8,4.9,0.9,6.5c1.9,2,5.1,1.9,7.9,1.7
		c0.4,5.8,5,11.1,10.7,12.2c1.7,0.3,3.7,0.3,5.1-0.9"/>
	<path class="st7" d="M232.7,40.5c-2.5,1.6-4.1,4.4-4.5,7.3c-0.3,2.9,0.7,6,2.7,8.1c-2,1.4-4.2,3.1-4.9,5.5
		c-0.8,2.4,0.6,5.6,3.1,5.7c0.3,3.2,2.4,6.1,5.3,7.4c2,0.9,4.3,1,6.3,2.1c2,1,3.5,3.5,2.4,5.4"/>
	<path class="st7" d="M302.3,81.6c0.9-1.2,1.8-2.5,3-3.4c2.2-1.7,5.4-2.1,8-0.9s4.7,3.8,7.5,3.6c3.1-0.2,4.8-3.8,5.2-6.9
		c3.6,0.3,7,2.6,10.5,1.9c1.6-0.3,3.1-1.3,4.4-2.4c2.3-1.9,4.2-4.4,4.9-7.3c0.6-2.9-0.4-6.3-3-7.8s-6.5-0.1-7.1,2.8
		c0.2-2.9-1.7-5.7-4.4-6.7c-2.7-0.9-6,0.1-7.6,2.5"/>
	<path class="st7" d="M345.9,67c1.9,2.3,3.8,4.8,4.5,7.7c0.7,2.9-0.3,6.5-3,7.8"/>
	<path class="st7" d="M271.2,45.9c0.2-0.7-0.9-1-1.6-0.8c-2.8,0.5-5.7,1.1-7.9,2.7c-2.7,1.9-4.2,5.3-4,8.6c-1.5,0-2.9-0.9-4.4-0.9
		c-1.6,0-3.1,1.1-4.1,2.5c-2.6,3.6-2.4,8.9,0.4,12.4c2.8,3.5,7.7,5,12,3.8c2-0.6,4-1.8,4.7-3.8c0.8-2.1,0-4.4-0.7-6.4"/>
	<path class="st6" d="M267.2,222.6c-0.2-3-2.7-5.6-5.6-5.9c-2.9-0.3-6,1.7-6.8,4.6c-0.4-4.5-5.3-8-9.6-6.9c-2.6-2.1-6-3.7-9.3-3
		c-3.3,0.6-6.2,4-5.4,7.2c0.9,0.6,1.7,1.1,2.6,1.7c-4.2,0.1-7.7,4.2-7.5,8.4s3.8,7.8,7.9,8.5c-4.8-0.8-9.9,2.4-11.1,7.1
		c-1.3,4.7,1.5,10.1,6.1,11.7c1.4,0.5,2.9,0.7,4.4,0.8c1.9,0.2,4,0.3,5.6-0.8c1.6-1.1,2.1-3.8,0.5-4.9"/>
	<path class="st7" d="M244.9,213.6c2-3.7,7.2-5.3,10.9-3.2c2.3,1.3,3.9,3.9,3.5,6.5c-0.4-0.3-0.9-0.6-1.3-0.9"/>
	<path class="st7" d="M265.5,223.9c-0.4,0-0.3-0.7-0.1-1c1.1-1.3,2.7-2.5,4.4-2.3c1.7,0.2,3.1,2.2,2.3,3.7c1.7,0.3,3.5,0.1,5.2-0.5
		c-2-3.7,0.5-8.6,4.5-10.1c2.5-0.9,5.4-0.7,7.5,0.9c2,1.6,2.9,4.8,1.5,7.1c2.8-1.3,6.5-1.4,8.9,0.6s2.9,6.2,0.5,8.2"/>
	<path class="st6" d="M295.1,231.2c1.7-1.6,4.2-2.2,6.5-1.6c2.2,0.6,4.1,2.5,4.7,4.7c2.9-3,7.7-3.9,11.5-2.2
		c3.8,1.8,6.2,6.1,5.7,10.2c-0.5,4.1-3.8,7.8-7.9,8.6c3,1.3,5,4.6,4.8,7.8c-0.3,3.3-2.8,6.2-6,7c3.1,2.8,2.7,8.4-0.8,10.8
		c-2.6,1.8-6.2,1.5-9.2,0.4c-4.7-1.8-8.6-6.4-8.1-11.4c0.2-2.2,1.5-4.4,3.6-5.2c2.1-0.8,4.9,0.6,5.1,2.8"/>
	<path class="st6" d="M237.1,257.9c-1.9,0-2.8,2.4-2.6,4.3c0.6,5.1,5.9,8.1,10.8,9.4c3,0.8,6.2,0.9,7.3-1.6c0.4-0.8,1.2-1.4,1.7-2.1
		c0.9-1.4,1.9-2.8,2.8-4.3"/>
	<path class="st7" d="M249.8,259.2c3.9,2.9,8.9,4.5,13.8,4.4c1.9,0,3.8-0.4,5.3-1.6c1.8,2.9,4.7,5.2,8,6.2c1.7,0.6,3.6,0.8,5.3,0.4
		c3-0.7,5.3-3.4,5.7-6.4c0.4-3-1.3-6.2-4-7.5"/>
	<path class="st7" d="M248.3,249.7c-0.3,0.8-1.4,0-1.8-0.7c-0.9-1.7-1.7-3.5-1.8-5.5c-0.2-2.8,1.3-5.6,3.6-7
		c2.4-1.4,5.5-1.5,7.9-0.1c-0.6,0.1-1.2-0.1-1.6-0.5c-1-2.1,0.9-4.4,2.8-5.5c5.1-2.8,12.1-1.3,15.6,3.3c1.5,2,2.4,4.7,1.3,6.9"/>
	<path class="st7" d="M232.6,231.5c0-0.4,0-0.9,0-1.3c2.7-2.3,6.4-3.3,9.8-2.7c3.5,0.6,6.6,2.8,8.3,5.9c0.3,0.5,0.5,1.2,0,1.6"/>
	<path class="st7" d="M275.5,249.4c1.3-3.6,4.9-6.3,8.7-6.5c3.9-0.1,7.7,2.3,9.2,5.8c-1-2.5,1.2-5.6,3.8-6c2.7-0.5,5.4,1.1,7,3.4
		c1.6,2.2,2.1,5.3,0.8,7.8c-1.3,2.4-4.8,3.6-7,2"/>
	<path class="st6" d="M240,272.1c-1.6,2.8-1,6.7,1.4,8.9c0.2,0.2,0.4,0.3,0.4,0.6c0.1,0.5-0.5,0.8-1,0.9c-2.2,0.6-4.4,1.2-6.3,2.5
		c-1.8,1.3-3.2,3.6-2.7,5.8c0.4,2.2,3.1,3.9,5.1,2.7c-1.9,0.1-3.8,0.2-5.5,1.2s-2.8,2.9-2.2,4.7c0.5,1.5,2.1,2.4,3.7,2.5
		c1.6,0.1,3.1-0.4,4.6-0.9c-0.2,1.9-0.4,4.1,0.8,5.6c0.8,1,2,1.5,3.2,1.9c2.3,0.6,4.9,0.6,7-0.4c2.2-1,3.8-3.2,3.9-5.6
		c0.1-1.9-0.9-3.8-2.5-4.9s-3.7-1.2-5.5-0.4c-0.3,1-0.6,2.1-0.4,3.1c0.3,1,1.4,1.9,2.4,1.5c0-0.8,0-1.5,0-2.3"/>
	<path class="st6" d="M313.2,276.4c-0.6,1.5,0.7,3.1,2.2,3.6s3.1,0.4,4.7,0.7c4.4,1,6.9,6.9,4.5,10.7c-2.1,3.4-7,5.3-7.2,9.3
		c3.1-0.6,6,2.7,5.7,5.9c-0.3,3.1-3,5.7-6,6.7c-3,1.1-6.2,1-9.4,0.9c2.1,1,4.3,2,5.6,3.9c1.3,1.9,1.5,4.8-0.4,6.3
		c2.1,0.8,3.6,3.1,3.5,5.4s-1.7,4.4-3.9,5.1c1,1.6-1.5,4.3,0.1,5.4c0.4,0.3,0.9,0.3,1.4,0.4c2.9,0.6,3.4,5.1,1.4,7.2
		c-2,2.2-5.3,2.6-8.3,2.8c1.8,2-0.1,5.9-2.8,5.6c2.1,2.5-0.6,7.2-3.8,6.6c0.1,1,0.1,2.1,0.2,3.1c2.9-1.7,7-0.8,8.8,2s1,7-1.8,8.9
		c2.7-0.6,5.5,1.1,6.6,3.6c1,2.5,0.2,5.6-1.9,7.4c2-1.2,4.7-0.4,6.3,1.2c1.6,1.7,2.3,4,2.8,6.3"/>
	<path class="st6" d="M239.8,392.9c-1.1-2-0.7-4.6,0.9-6.2c1.6-1.6,4.2-2,6.2-0.9c0-1.6,0-3.3,0-4.9c-1.7,0.4-3.5-0.8-4.1-2.5
		c-0.6-1.6-0.1-3.5,0.9-5c-4.1-0.1-7.9-3.7-8.1-7.8c-0.2-4.1,3.1-8.1,7.2-8.7c0.8-0.1,1.8-0.4,1.7-1.1c0-0.3-0.2-0.6-0.5-0.8
		c-1.9-1.9-4.5-3-6.8-4.5s-4.4-3.8-4.4-6.5s3.3-5.2,5.6-3.6c0.5-1.3,1.5-2.4,2.7-3.1c-2.4,0.1-4.8-1.7-5.4-4.1
		c-0.6-2.3,0.5-5,2.6-6.2c1.4-0.7,3.3-1.3,3.3-2.9c0-1-1-1.8-1.7-2.5c-3.1-3.1-1.9-9.2,2-11"/>
	<path class="st7" d="M264.7,215.9c0.3-0.2,0.1,0.6-0.2,0.4c-0.3-0.2-0.1-0.7,0-1c0.9-1.7,2-3.6,3.8-4.4c1.8-0.8,4.4,0,4.6,2
		c-0.6-3.8,1-7.8,4-10.2s7.3-3,10.8-1.6c3.2,1.3,5.9,4.8,4.9,8.1"/>
	<path class="st6" d="M284.6,208.3c1.9,0.1,3.8-0.1,5.7,0.3c1.9,0.4,3.7,1.6,4.1,3.5c2-0.9,4.5,0.5,5.5,2.5s0.8,4.4,0.6,6.6
		c0,0.2-0.1,0.4-0.3,0.5c-0.2,0.1-0.3-0.3-0.1-0.3"/>
	<path class="st6" d="M269.9,210.7c-1.6-2.1-2.2-5-1.4-7.5c0.5-1.5,1.3-3.4,0.2-4.5c-0.7-0.7-1.8-0.7-2.9-0.8
		c-6.1-0.6-10.5-8.1-8-13.7c0.5-1.2,1.3-2.3,1.2-3.6c-0.2-3.2-5-3.7-6.5-6.5c-1.1-2.1-0.1-4.5,0.4-6.8c0.6-3.2,0.1-6.5-1.4-9.4
		c-4.5,0.8-8.6-5-6.3-8.9c1.4-2.4,4.5-5.2,2.6-7.2c-1.3,0-2.6,0-3.9,0c-1.6-1.6-1-4.4-2.2-6.3c-1.9-2.7-6-1.5-9.4-1.7
		c-5-0.3-9.3-5.2-8.9-10.3c-2.3-2.2-5.8-3-8.8-2c0.4-1.7-1.7-2.6-3.3-3.3c-4.4-1.9-7.1-7.3-5.9-12c1.2-4.7,6-8.2,10.9-7.8
		c0,1.9,0,3.8,0,5.8c-0.9,0.3-1.8,0.7-2.6,1"/>
	<path class="st6" d="M291.5,209.7c-0.8-0.9,0.6-1.9,1.7-2.4c3.5-1.7,5.3-6.3,3.9-9.9c-0.8-2-2.4-4-1.5-5.9c0.4-0.9,1.4-1.5,2-2.3
		c0.9-1.1,1.2-2.5,1.5-3.9c1.4-6.5,2.8-13.5,0.4-19.8c-0.7-1.9-1.8-3.9-0.9-5.7c0.3-0.7,0.9-1.2,1.3-1.8c1-1.6,1-3.6,1.5-5.5
		c0.5-1.8,2.3-3.6,4.1-2.9c1.1,3.3,4.7,5.5,8.1,5c-0.1-1.8-0.1-3.5-0.2-5.3c1.3-1.4,3.4,0.3,4.9,1.5c3.3,2.5,8.4,1.9,11.1-1.2
		c2.7-3.1,2.5-8.2-0.4-11.1c2.5,1.3,6,0.5,7.7-1.8s1.3-5.9-0.8-7.8"/>
	<path class="st6" d="M308.7,102.6c-2.8,1.8-4.4,5.6-3.1,8.7s5.6,4.6,8.3,2.6c-2.1,3.5-0.3,8.4,2.9,10.9s7.5,3.2,11.6,3.4
		c3.9,0.2,7.9,0,11.5-1.6c3.6-1.6,6.6-4.9,7-8.8c2.9,2.1,7,0.8,9.9-1.3c7.3-5.5,10.2-16,6.9-24.4c-0.4-1.1-1.8-2.3-2.6-1.5"/>
	<path class="st7" d="M327.8,109.6c1.4,1.8,3.7,2.5,5.9,3.1c4,1.1,8.2,1.9,12.2,1s7.8-4,8.5-8.1"/>
	<path class="st7" d="M330.4,86.1c0.1,5.6-5.3,9.8-10.7,11.4c-2.6,0.8-5.5,1.2-8.1,0.2s-4.6-3.8-3.9-6.4c-6,4.6-15.4,3.9-20.7-1.4
		c-2.2-2.3-3.8-5.4-3.4-8.6s3.3-6.1,6.5-5.8"/>
	<path class="st7" d="M232.1,95.8c-1.8,3.8-0.1,8.6,3.1,11.4c3.1,2.8,7.4,4,11.5,4.8c2.7,0.5,5.5,0.8,8.1,0.2
		c2.6-0.7,5.1-2.5,5.9-5.1c-1.2,2.9-0.5,6.5,1.4,9c1.9,2.6,4.7,4.3,7.7,5.3c8.1,2.8,18.1,0.6,23.1-6.4c1.9-2.8,3-6.2,2.5-9.6
		c-0.6-3.3-2.9-6.4-6.2-7.4"/>
	<path class="st7" d="M291.1,117.5c2.3,3.2,6.6,4.6,10.5,4.2s7.6-2.3,10.8-4.6"/>
	<path class="st7" d="M219.8,93.2c0.5-0.7,1.5,0.2,2,0.9c1.3,1.8,4,2.3,6.2,1.8s4.2-1.7,6.3-2.6s4.5-1.5,6.6-0.6
		c3,1.3,4.1,4.9,6.5,7.1c2.8,2.6,7.1,2.9,10.8,2.1c2.4-0.5,4.7-1.5,6.4-3.2s2.5-4.4,1.7-6.7c-0.8-2.3-3.6-3.8-5.8-2.8"/>
	<path class="st7" d="M227.6,115.1c0.6,4.4,2.7,8.6,6.3,11.1c3.6,2.6,8.6,3.2,12.4,1.2c0.8-0.4,1.7-0.9,2.5-0.5
		c0.3,0.2,0.5,0.5,0.7,0.7c2.7,3.4,7.4,5,11.7,4.1c4.2-0.9,7.9-4.3,9-8.4"/>
	<path class="st7" d="M274.1,146.1c1.1,2.2,2.8,4.1,5,5.2c2.3,1.3,5.2,1.7,7.7,0.9c2.5-0.9,4.5-3.2,4.7-5.8c4.4,3.9,12,3.3,15.8-1.2
		c1.3-1.5,2.2-3.6,1.6-5.5s-3.1-3.2-4.7-2"/>
	<path class="st7" d="M257.1,139c-0.5,0.2-0.1,1,0.4,1.3c5.9,3.8,13.4,4.9,20.1,3s12.5-6.9,15.4-13.2c4.6,2.6,10.9,1.9,14.8-1.6"/>
	<path class="st7" d="M312.9,282.4c2.5,1.9,2,6.3-0.7,7.8c-2.7,1.6-6.5,0.3-8-2.4c-1.7,0.7-1.1,3.2-1.9,4.8c-1,2.1-4.2,2.2-5.9,0.7
		s-2.2-4-2.2-6.3c-0.9,0-1.7,0.1-2.6,0.1c0.3,1.1,0.5,2.2,0.1,3.3c-0.4,1-1.6,1.9-2.6,1.3c-0.6-0.3-0.9-1-1.2-1.7
		c-0.7-1.9-1.5-3.9-2.2-5.8c-1.5,0.7-3.1,1.2-4.7,1.2c-1.6-0.1-3.3-0.9-3.9-2.4c-0.2,2.6-2.7,4.7-5.2,4.6c-2.6-0.1-4.8-2.5-4.8-5.1
		c0-1.5,1-3.1,2.4-3.1"/>
	<path class="st7" d="M291.3,305.2c2-0.4,4.3,0.5,5.4,2.3c1.1,1.7,1.1,4.2-0.1,5.9c-1.8-0.1-3.7-0.6-5.3-1.4c0,0.6,0,1.3,0,1.9
		c1.7-0.4,3.5-0.2,4.9,0.8s2.2,2.8,1.8,4.5c-0.5,1.6-2.4,2.8-4,2.2c-0.9-0.3-1.6-1.2-2.4-1.8c-0.8-0.6-2-1-2.8-0.3
		c-1.2,0.9-0.6,3.4-2.1,3.9c-0.4,0.1-0.7,0-1.1,0c-2.7-0.5-5.7-1.2-7.1-3.6c-0.2-0.3-0.3-0.6-0.6-0.8c-0.6-0.5-1.5,0-2,0.6
		s-0.8,1.3-1.4,1.8s-1.4,0.6-2.1,0.6c-4.9,0-9.4-4.4-9.4-9.3c0-1.7,0.4-3.7-0.8-5c-0.7,0-1.3,0.4-2,0.6c-2,0.4-3.3-2.3-3.1-4.3
		c0.4-3.9,4.1-7.2,8-6.9c3.9,0.3,7,4.7,5.8,8.4c-0.9,0.5-1.7,1-2.6,1.5c0.1-1.8-0.4-3.6-1.3-5.2"/>
	<path class="st7" d="M262.9,311.7c-2.8-0.5-5.1,2.3-6.1,5c-0.4,1.2-0.7,2.5-0.5,3.8s1.1,2.5,2.4,2.8c0.7,0.2,1.4,0.1,2,0.5
		c0.7,0.6,0.5,1.7,0.1,2.5s-1,1.7-0.9,2.6c0.1,0.8,0.7,1.4,1.3,1.9c2,1.8,4.8,3.2,7.4,2.4c2.2-0.7,3.7-3.3,3.2-5.6"/>
	<path class="st7" d="M248.3,380.9c-0.5-1.8-0.9-3.8-0.2-5.5s3.1-2.8,4.5-1.6c-0.1-2,0.5-4.1,1.7-5.7c-3.1-1.3-5.2-4.7-4.9-8
		s3-6.3,6.3-7c2-0.4,4.6,0.5,4.6,2.6c-0.5-2-1-4-0.8-6s1.6-4,3.5-4.5c2.5-0.6,5,1.4,5.9,3.8s0.5,5,0.1,7.6c1.4-0.1,2.9,0.2,4.1,1
		c0.5-3.2,4.5-5.3,7.4-4c2.9,1.4,3.9,5.8,1.7,8.2c1.8-1.7,5.2,1.1,4,3.2c2.3-3,7.7-0.8,8.6,2.8c0.8,3.7-1.6,7.4-4.6,9.7
		c3.3-1.4,7.4-0.6,9.8,2s3,6.8,1.2,9.9c1.8-1.9,5-2.4,7.3-1.2c2.4,1.2,3.8,4,3.4,6.6"/>
	<path class="st7" d="M273.8,375.3c-0.1-0.5,0.2-1,0.5-1.4c1.9-2.1,5.6-1.4,7.4,0.7s2.3,5.1,2.5,7.9c1.6-0.7,3.5-1,5.2-0.4
		c1.6,0.6,2.9,2.4,2.7,4.1"/>
	<path class="st7" d="M277.2,353.3c-0.4-2.4-0.4-5,1-7s4.5-2.9,6.4-1.4c0.9-0.9,0.6-2.3,0-3.4c-0.6-1-1.6-1.9-2-3
		c-0.5-1.2-0.5-2.5-0.2-3.7c0.9-3.4,4.3-5.8,7.8-5.8s6.8,2.5,7.9,5.8s0,7.2-2.6,9.5c2.3,0.5,3.8,2.8,4,5.1c0.3,2.3-0.5,4.6-1.3,6.7"
		/>
</g>
<path class="st8" d="M195.1,87.1c0,0-8.4-2.3-6.1-8.4c2.3-6.1,1.2-7.7-0.8-11.1c-1.9-3.5-1.9-5.4,0.8-8.4c2.7-3.1,10.4-3.8,11.5-3.5
	c1.2,0.4,0.8-8.8,5.4-8.1c4.6,0.8,8.8,7.7,7.7,11.1c-1.2,3.5-1.5,11.9,2.3,13.8s6.7-5.6,14.1-2.4c7.4,3.2,8.9,13.2,8.9,14.7
	s7.3,7.7,13.1,5.4c5.8-2.3,1.9-9.2,8.1-9.6c6.1-0.4,9.2,5.4,9.2,8.4c0,3.1,3.1,6.9,3.1,9.6s-1.2,10.7,3.8,9.6
	c5-1.2,6.5-4.3,12.7-4.2c6.2,0.1,8.3,5.2,5,9.4c-3.3,4.3-2.2,5.2-0.6,6.1s7.3-3.7,9.9-6s6.8,5.2,6,5.6s5.9-9.5,9.4-6.4
	s6.4,5.5,10.7-2c4.3-7.6,7.4-10.3,10-5.3c2.7,5,5.8,10-1.5,14.2s-7.7,9.2-16.5,9.6c-8.8,0.4-20.4-7.3-19.6-2.7
	c0.8,4.6-4.1,11.2-13.6,10.6c-9.4-0.6-16-5.2-15.2-7.9s-2.1,1.8-8.8,5.8c-6.8,3.9-11.5,5-14.2,1.2s-3.9-7.8-6.5-7.7
	s-6.5,6.2-10.4,1.9c-3.8-4.2-1.6-12.5-4.6-12.8c-3.1-0.3-8.4,2-10.3,0.9c-1.9-1.2-8.4,1.2-8.4-6.1c0-7.3-0.8-12.2,1.4-13.1
	s-5.8,2.8-8,1.5c-2.2-1.2-2.6-6.1-2.6-7.7L195.1,87.1z"/>
<path class="st9" d="M260.4,146.2c0,0,0,7.3,9.2,10s13.1,3.5,15.7,1.5c2.7-1.9,4.6-3.1,7.7-1.9c3.1,1.2,5.5-3.1,6.1-5
	c0.7-1.9,5.5-3.3,6.3-4c0.8-0.6,4.8,5.8,7.9,2.4c3.1-3.4,7.7-9.9,2.7-7.6c-5,2.3-7.7,5-10,2.7s-5.8-8.4-9.2-5
	c-3.5,3.5,0,2.7-6.1,5.8s-8.4,4.2-12.3,3.8C274.6,148.5,260.4,146.2,260.4,146.2z"/>
<path class="st9" d="M229.7,228c3.5-5,9.7-4.9,9.7-0.5c-0.1,4.4,1.1,6.7,4.2,6.7c3.1,0,0-0.4-0.4,5s3.5,7.7,6.5,6.1
	c3.1-1.5,6.9-6.5,10-2.7s6.1,8.4,0.8,10c-5.4,1.5-6.1-4.2-9.2-1.2c-3.1,3.1-11.5-5.4-12.7-3.1c-1.2,2.3-1.5,5-5.4,3.5
	c-3.8-1.5-7.7-1.2-7.7-4.2c0-3.1,3.8-4.2,5.4-5c1.5-0.8,3.8-2.7,3.1-3.8c-0.8-1.2-6.8-0.8-6.1-4.8C228.5,229.9,229.7,228,229.7,228z
	"/>
<path class="st9" d="M243.6,271c9.2-1,8,1.1,10.9-3.1c2.8-4.3,3.5-6,6.6-4.3s0.3-4.8,9,0.2s9,6.6,12.1,5s4.3-6.2,3.2-8.1
	c-1.2-1.9-1.5-5.8-1.5-5.8c3.6,9.3,3.4,12.3,1.1,15.7c-2.3,3.5-3.5,4.2-7.3,5s-9.6-1.5-11.5,3.5s0,9.6-4.2,10s-5.8-3.1-8.1-0.4
	c-2.3,2.7-7.3,1.5-8.8,3.8s-7.9,5.2-8.2,1.1c-0.3-4.2,4.7-7.2,6.3-7.2c1.5,0,3.8-1.5,3.1-3.5c-0.8-1.9-1.9-3.1-3.5-5.4
	c-1.5-2.3-0.6-7.1-0.6-7.1L243.6,271z"/>
<path class="st9" d="M313.8,287.5c-2.3,7.3-17.6,9.5-18,10.7c-2.9,7.7,2.7,8.4-3.5,9.6c-6.1,1.2-10.4,1.9-13.4-0.8
	c-3.1-2.7-1.5-2.3-5,1.2s-12.5-0.3-9.9,0s5.7,9.9,13.4,8.8c7.7-1.2,15.6-4.3,15.6-4.3s3.9-4.5,5.3,1.4s3.4-1.5,1.4,5.9
	s-9.4-3.1-5.4,10.2c4.1,13.2-2.8,14.4-6.6,9.9c-3.7-4.5-5-7.7-5.8-2.7s3.9,9.1,3.5,12.3c-0.4,3.1-5.4,7.7-10.4,6.9
	c-5-0.8-14.6-4.2-5-0.8c9.6,3.5,13.8,5.4,14.6,11.5c0.8,6.1,3.4,8.6-0.8,11.5s-3.8,7.7-7.3,8.8c-3.5,1.2-9.6,5-9.6,5s10,0,14.2-0.8
	s10.7,0,14.6-0.4c3.8-0.4,10,0.9,11.9,0.3s6.2,2,7.3,2c1.2,0-4.2-3.1-4.6-6.9s-3.5-11.5-6.1-11.5c-2.7,0-2.3-0.8-3.5-3.8
	c-1.2-3.1-1.5-4.6-2.3-6.5s-9.2,0.8-0.8-6.5c8.4-7.3,7.3-11.5,10-11.5s2.8,4,6.5,0s3.5-6.9,0.4-8.1s-6.5-0.8-3.8-5s6.3-5.1,3.9-8.7
	s-5.1-2.8-6.6-4.4c-1.5-1.5-3.5-3.8-0.8-6.9s3.1-1.9,5.8-1.5s1.4,2,6.5-1.5s4.8-8.5,2.2-9s-5.6,0.1-6.4-1c-0.8-1.2,1.9-0.8,4.2-6.5
	s4.6-6.5,1.9-8.1S313.8,287.5,313.8,287.5z"/>
<g>
	<rect x="51.1" y="606.8" class="st10" width="329.7" height="71.1"/>
</g>
<radialGradient id="SVGID_00000124161579174925202920000001227997111020723099_" cx="278.1" cy="164.8063" r="98.942" gradientTransform="matrix(1 0 0 -1 0 566.0063)" gradientUnits="userSpaceOnUse">
	<stop  offset="0" style="stop-color:#FFFFFF"/>
	<stop  offset="0.7924" style="stop-color:#FFFFFF;stop-opacity:0"/>
</radialGradient>
<ellipse style="fill:url(#SVGID_00000124161579174925202920000001227997111020723099_);" cx="278.1" cy="401.2" rx="118" ry="75.2"/>
<linearGradient id="SVGID_00000003088753668794905380000016555097283766366372_" gradientUnits="userSpaceOnUse" x1="321.5294" y1="198.9592" x2="389.8963" y2="198.9592" gradientTransform="matrix(1 0 0 -1 0 703.8898)">
	<stop  offset="0" style="stop-color:#FFFFFF;stop-opacity:0"/>
	<stop  offset="0.8914" style="stop-color:#FFFFFF"/>
</linearGradient>
<rect x="321.5" y="364.7" style="fill:url(#SVGID_00000003088753668794905380000016555097283766366372_);" width="68.4" height="280.4"/>
<g>
	<rect x="38.2" y="540.1" class="st13" width="327.2" height="47.4"/>
	<rect x="38" y="541.2" class="st14" width="328" height="47.8"/>
	<rect x="37.9" y="542.4" class="st15" width="328.8" height="48.2"/>
	<rect x="37.8" y="543.5" class="st16" width="329.6" height="48.6"/>
	<rect x="37.6" y="544.6" class="st17" width="330.4" height="49"/>
	<rect x="37.5" y="545.8" class="st18" width="331.2" height="49.4"/>
	<rect x="37.3" y="546.9" class="st19" width="332.1" height="49.8"/>
	<rect x="37.2" y="548" class="st20" width="332.9" height="50.2"/>
	<rect x="37.1" y="549.2" class="st21" width="333.7" height="50.6"/>
	<rect x="36.9" y="550.3" class="st22" width="334.5" height="51"/>
	<rect x="36.8" y="551.4" class="st23" width="335.3" height="51.4"/>
	<rect x="36.6" y="552.6" class="st24" width="336.1" height="51.8"/>
	<rect x="36.5" y="553.7" class="st25" width="336.9" height="52.2"/>
	<rect x="36.4" y="554.8" class="st26" width="337.7" height="52.6"/>
	<rect x="36.2" y="556" class="st27" width="338.5" height="53"/>
	<rect x="36.1" y="557.1" class="st28" width="339.3" height="53.4"/>
	<rect x="36" y="558.2" class="st29" width="340.1" height="53.9"/>
	<rect x="35.8" y="559.4" class="st30" width="340.9" height="54.3"/>
	<rect x="35.7" y="560.5" class="st31" width="341.7" height="54.7"/>
	<rect x="35.5" y="561.6" class="st32" width="342.5" height="55.1"/>
	<rect x="35.4" y="562.8" class="st33" width="343.3" height="55.5"/>
	<rect x="35.3" y="563.9" class="st34" width="344.2" height="55.9"/>
	<rect x="35.1" y="565" class="st35" width="345" height="56.3"/>
	<rect x="35" y="566.2" class="st36" width="345.8" height="56.7"/>
	<rect x="34.8" y="567.3" class="st37" width="346.6" height="57.1"/>
	<rect x="34.7" y="568.4" class="st38" width="347.4" height="57.5"/>
	<rect x="34.6" y="569.6" class="st39" width="348.2" height="57.9"/>
	<rect x="34.4" y="570.7" class="st40" width="349" height="58.3"/>
	<rect x="34.3" y="571.8" class="st41" width="349.8" height="58.7"/>
	<rect x="34.1" y="573" class="st42" width="350.6" height="59.1"/>
	<rect x="34" y="574.1" class="st43" width="351.4" height="59.5"/>
	<rect x="33.9" y="575.2" class="st44" width="352.2" height="59.9"/>
	<rect x="33.7" y="576.4" class="st45" width="353" height="60.3"/>
	<rect x="33.6" y="577.5" class="st46" width="353.8" height="60.7"/>
	<rect x="33.4" y="578.6" class="st47" width="354.6" height="61.1"/>
	<rect x="33.3" y="579.8" class="st48" width="355.4" height="61.5"/>
	<rect x="33.2" y="580.9" class="st49" width="356.3" height="61.9"/>
	<rect x="33" y="582" class="st50" width="357.1" height="62.3"/>
	<rect x="32.9" y="583.2" class="st51" width="357.9" height="62.7"/>
	<rect x="32.8" y="584.3" class="st52" width="358.7" height="63.1"/>
	<rect x="32.6" y="585.4" class="st53" width="359.5" height="63.5"/>
	<rect x="32.5" y="586.6" class="st54" width="360.3" height="64"/>
	<rect x="32.3" y="587.7" class="st55" width="361.1" height="64.4"/>
	<rect x="32.2" y="588.8" class="st56" width="361.9" height="64.8"/>
	<rect x="32.1" y="590" class="st57" width="362.7" height="65.2"/>
	<rect x="31.9" y="591.1" class="st58" width="363.5" height="65.6"/>
	<rect x="31.8" y="592.2" class="st59" width="364.3" height="66"/>
	<rect x="31.6" y="593.4" class="st60" width="365.1" height="66.4"/>
	<rect x="31.5" y="594.5" class="st61" width="365.9" height="66.8"/>
	<rect x="31.4" y="595.6" class="st62" width="366.7" height="67.2"/>
	<rect x="31.2" y="596.8" class="st63" width="367.5" height="67.6"/>
	<rect x="31.1" y="597.9" class="st64" width="368.3" height="68"/>
</g>
<text transform="matrix(1 0 0 1 33.8976 32.3193)" class="st65 st66">1</text>
<text transform="matrix(1 0 0 1 33.8976 320.9718)" class="st65 st66">2</text>
<text transform="matrix(1 0 0 1 33.8976 617.7502)" class="st65 st66">3</text>
<radialGradient id="SVGID_00000014598136289703948880000016223461228911955597_" cx="278.123" cy="303.1064" r="98.926" gradientTransform="matrix(1 0 0 -1 0 703.8898)" gradientUnits="userSpaceOnUse">
	<stop  offset="0" style="stop-color:#FFFFFF"/>
	<stop  offset="0.7924" style="stop-color:#FFFFFF;stop-opacity:0"/>
</radialGradient>
<ellipse style="fill:url(#SVGID_00000014598136289703948880000016223461228911955597_);" cx="278.1" cy="400.8" rx="118" ry="75.2"/>
<g class="st68">
	<rect x="38.2" y="421" class="st69" width="348" height="224.2"/>
	<g class="st70">
		<rect x="38.2" y="391" class="st71" width="347.6" height="34.6"/>
		<rect x="38.2" y="391.8" class="st72" width="347.6" height="34.4"/>
		<rect x="38.2" y="392.5" class="st73" width="347.6" height="34.2"/>
		<rect x="38.2" y="393.2" class="st74" width="347.6" height="34"/>
		<rect x="38.2" y="393.9" class="st75" width="347.6" height="33.8"/>
		<rect x="38.2" y="394.7" class="st76" width="347.6" height="33.6"/>
		<rect x="38.2" y="395.4" class="st77" width="347.6" height="33.4"/>
		<rect x="38.2" y="396.1" class="st78" width="347.6" height="33.2"/>
		<rect x="38.2" y="396.8" class="st79" width="347.6" height="33"/>
		<rect x="38.2" y="397.6" class="st80" width="347.7" height="32.8"/>
		<rect x="38.2" y="398.3" class="st81" width="347.7" height="32.6"/>
		<rect x="38.2" y="399" class="st82" width="347.7" height="32.4"/>
		<rect x="38.2" y="399.7" class="st83" width="347.7" height="32.2"/>
		<rect x="38.2" y="400.5" class="st84" width="347.7" height="32"/>
		<rect x="38.2" y="401.2" class="st85" width="347.7" height="31.8"/>
		<rect x="38.2" y="401.9" class="st86" width="347.7" height="31.6"/>
		<rect x="38.2" y="402.6" class="st87" width="347.7" height="31.4"/>
		<rect x="38.2" y="403.4" class="st88" width="347.7" height="31.2"/>
		<rect x="38.2" y="404.1" class="st89" width="347.7" height="31"/>
		<rect x="38.2" y="404.8" class="st90" width="347.7" height="30.7"/>
		<rect x="38.2" y="405.5" class="st91" width="347.8" height="30.5"/>
		<rect x="38.2" y="406.3" class="st9" width="347.8" height="30.3"/>
		<rect x="38.2" y="407" class="st92" width="347.8" height="30.1"/>
		<rect x="38.2" y="407.7" class="st93" width="347.8" height="29.9"/>
		<rect x="38.2" y="408.4" class="st94" width="347.8" height="29.7"/>
		<rect x="38.2" y="409.2" class="st95" width="347.8" height="29.5"/>
		<rect x="38.2" y="409.9" class="st96" width="347.8" height="29.3"/>
		<rect x="38.2" y="410.6" class="st97" width="347.8" height="29.1"/>
		<rect x="38.2" y="411.3" class="st98" width="347.8" height="28.9"/>
		<rect x="38.2" y="412.1" class="st99" width="347.8" height="28.7"/>
		<rect x="38.2" y="412.8" class="st100" width="347.9" height="28.5"/>
		<rect x="38.2" y="413.5" class="st101" width="347.9" height="28.3"/>
		<rect x="38.2" y="414.2" class="st102" width="347.9" height="28.1"/>
		<rect x="38.2" y="415" class="st103" width="347.9" height="27.9"/>
		<rect x="38.2" y="415.7" class="st104" width="347.9" height="27.7"/>
		<rect x="38.2" y="416.4" class="st105" width="347.9" height="27.5"/>
		<rect x="38.2" y="417.1" class="st106" width="347.9" height="27.3"/>
		<rect x="38.2" y="417.9" class="st107" width="347.9" height="27.1"/>
		<rect x="38.2" y="418.6" class="st108" width="347.9" height="26.9"/>
		<rect x="38.2" y="419.3" class="st109" width="347.9" height="26.7"/>
		<rect x="38.2" y="420" class="st110" width="347.9" height="26.5"/>
		<rect x="38.2" y="420.8" class="st111" width="348" height="26.3"/>
		<rect x="38.2" y="421.5" class="st112" width="348" height="26.1"/>
		<rect x="38.2" y="422.2" class="st113" width="348" height="25.9"/>
		<rect x="38.2" y="422.9" class="st114" width="348" height="25.7"/>
		<rect x="38.2" y="423.7" class="st115" width="348" height="25.5"/>
		<rect x="38.2" y="424.4" class="st116" width="348" height="25.3"/>
		<rect x="38.2" y="425.1" class="st117" width="348" height="25.1"/>
		<rect x="38.2" y="425.8" class="st118" width="348" height="24.9"/>
		<rect x="38.2" y="426.6" class="st119" width="348" height="24.6"/>
		<rect x="38.2" y="427.3" class="st120" width="348" height="24.4"/>
		<rect x="38.2" y="428" class="st0" width="348" height="24.2"/>
	</g>
</g>
<linearGradient id="SVGID_00000090254001878873820220000003427642785253227427_" gradientUnits="userSpaceOnUse" x1="321.5252" y1="60.7409" x2="389.9252" y2="60.7409" gradientTransform="matrix(1 0 0 -1 0 566.0063)">
	<stop  offset="0" style="stop-color:#FFFFFF;stop-opacity:0"/>
	<stop  offset="0.8914" style="stop-color:#FFFFFF"/>
</linearGradient>
<rect x="321.5" y="365.1" style="display:none;fill:url(#SVGID_00000090254001878873820220000003427642785253227427_);" width="68.4" height="280.4"/>
<linearGradient id="SVGID_00000150804260329213633930000014066856114792736147_" gradientUnits="userSpaceOnUse" x1="-905.7762" y1="60.7408" x2="-837.3763" y2="60.7408" gradientTransform="matrix(-1 0 0 -1 -804.1511 566.0063)">
	<stop  offset="0" style="stop-color:#FFFFFF;stop-opacity:0"/>
	<stop  offset="0.8914" style="stop-color:#FFFFFF"/>
</linearGradient>
<polygon style="display:none;fill:url(#SVGID_00000150804260329213633930000014066856114792736147_);" points="33.2,645.5 
	101.6,645.5 101.6,365.1 33.2,365.1 "/>
<g class="st68">
	<rect x="38.2" y="540.5" class="st123" width="327.2" height="47.4"/>
	<rect x="38" y="541.6" class="st124" width="328" height="47.8"/>
	<rect x="37.9" y="542.8" class="st125" width="328.8" height="48.2"/>
	<rect x="37.8" y="543.9" class="st126" width="329.6" height="48.6"/>
	<rect x="37.6" y="545" class="st127" width="330.4" height="49"/>
	<rect x="37.5" y="546.2" class="st128" width="331.2" height="49.4"/>
	<rect x="37.3" y="547.3" class="st129" width="332.1" height="49.8"/>
	<rect x="37.2" y="548.4" class="st130" width="332.9" height="50.2"/>
	<rect x="37.1" y="549.6" class="st131" width="333.7" height="50.6"/>
	<rect x="36.9" y="550.7" class="st132" width="334.5" height="51"/>
	<rect x="36.8" y="551.8" class="st133" width="335.3" height="51.4"/>
	<rect x="36.6" y="553" class="st134" width="336.1" height="51.8"/>
	<rect x="36.5" y="554.1" class="st135" width="336.9" height="52.2"/>
	<rect x="36.4" y="555.2" class="st136" width="337.7" height="52.6"/>
	<rect x="36.2" y="556.4" class="st137" width="338.5" height="53"/>
	<rect x="36.1" y="557.5" class="st138" width="339.3" height="53.4"/>
	<rect x="36" y="558.6" class="st139" width="340.1" height="53.9"/>
	<rect x="35.8" y="559.8" class="st140" width="340.9" height="54.3"/>
	<rect x="35.7" y="560.9" class="st141" width="341.7" height="54.7"/>
	<rect x="35.5" y="562" class="st142" width="342.5" height="55.1"/>
	<rect x="35.4" y="563.2" class="st143" width="343.3" height="55.5"/>
	<rect x="35.3" y="564.3" class="st144" width="344.2" height="55.9"/>
	<rect x="35.1" y="565.4" class="st145" width="345" height="56.3"/>
	<rect x="35" y="566.6" class="st146" width="345.8" height="56.7"/>
	<rect x="34.8" y="567.7" class="st147" width="346.6" height="57.1"/>
	<rect x="34.7" y="568.8" class="st148" width="347.4" height="57.5"/>
	<rect x="34.6" y="570" class="st149" width="348.2" height="57.9"/>
	<rect x="34.4" y="571.1" class="st150" width="349" height="58.3"/>
	<rect x="34.3" y="572.2" class="st151" width="349.8" height="58.7"/>
	<rect x="34.1" y="573.4" class="st152" width="350.6" height="59.1"/>
	<rect x="34" y="574.5" class="st153" width="351.4" height="59.5"/>
	<rect x="33.9" y="575.6" class="st154" width="352.2" height="59.9"/>
	<rect x="33.7" y="576.8" class="st155" width="353" height="60.3"/>
	<rect x="33.6" y="577.9" class="st156" width="353.8" height="60.7"/>
	<rect x="33.4" y="579" class="st157" width="354.6" height="61.1"/>
	<rect x="33.3" y="580.2" class="st158" width="355.4" height="61.5"/>
	<rect x="33.2" y="581.3" class="st159" width="356.3" height="61.9"/>
	<rect x="33" y="582.4" class="st160" width="357.1" height="62.3"/>
	<rect x="32.9" y="583.6" class="st161" width="357.9" height="62.7"/>
	<rect x="32.8" y="584.7" class="st162" width="358.7" height="63.1"/>
	<rect x="32.6" y="585.8" class="st163" width="359.5" height="63.5"/>
	<rect x="32.5" y="587" class="st164" width="360.3" height="64"/>
	<rect x="32.3" y="588.1" class="st165" width="361.1" height="64.4"/>
	<rect x="32.2" y="589.2" class="st166" width="361.9" height="64.8"/>
	<rect x="32.1" y="590.3" class="st167" width="362.7" height="65.2"/>
	<rect x="31.9" y="591.5" class="st168" width="363.5" height="65.6"/>
	<rect x="31.8" y="592.6" class="st169" width="364.3" height="66"/>
	<rect x="31.6" y="593.7" class="st170" width="365.1" height="66.4"/>
	<rect x="31.5" y="594.9" class="st171" width="365.9" height="66.8"/>
	<rect x="31.4" y="596" class="st172" width="366.7" height="67.2"/>
	<rect x="31.2" y="597.1" class="st173" width="367.5" height="67.6"/>
	<rect x="31.1" y="598.3" class="st174" width="368.3" height="68"/>
</g>
<g class="st175">
	<path class="st176" d="M149.1,495.7c0,0-0.4,2.9-1.1,3.5c-0.8,0.6-2.6,1-3.6,2.7s-2.6,3.5-1.8,4.5c0.9,1,0.2,1.5,2.1-0.8
		c1.9-2.3,1.1,0.7,1.4,1.6s0.2,2.7,1.2,0.1s1.8-6.2,2-4c0.1,2.2-0.4,3.5,0.2,4.3c0.6,0.8,0.9-2.2,1.7-3.4c0.7-1.3,1,1.9,1.3,2.8
		c0.3,0.8,1.1,1.5,1.4-1.9c0.3-3.4-0.5-2.6,0-4.6c0.6-1.9,1.2-3.6,1.2-3.6l0.1-2.2l-5.6-1.8L149.1,495.7z"/>
	<path class="st177" d="M78.8,460.1c0,0,0.1-1.9,1.4-2.7c1.3-0.8,1.4-0.8,2.8-2.1c1.4-1.3,2.7-2.1,3.7-1.7s0.8-0.3,2.8-0.8
		s2.6-1,3.4-0.4s1.9-1,2.9-0.3s2.2,0,2.9,0.3c0.7,0.3,1.7,0.2,2.5,0.2s2.3-1.2,3.1-0.6c0.8,0.6,2,0.9,2.4,1.2s2.5-0.7,2.9-0.2
		s1.7,0.2,2.3,0.8c0.7,0.6,1.3-0.2,2.8,0.1c1.5,0.3,1.2,0.3,3,0.5s2.8,0.8,4.1,0.7c1.3,0,3.3,0.2,3.9,0.1c0.7-0.2,0.2-0.1,1.4-1.3
		c1.2-1.2,2.2-2.4,2.6-1.2c0.4,1.2-0.1,1.7,1.3,1.4c1.3-0.3,2.7-0.2,2.7-0.2s-0.2-0.5-0.1-1.6c0.1-1.1,0.8-1.4,1.5-1.2
		c0.8,0.2-0.5,0.2-0.9-1.5s-1.6-2.9-0.2-2.7c1.4,0.1,1.9,1.4,2.3,1.6c0.4,0.2,0.6-1.1,1.2-2.1c0.7-1,1.4-1.6,1.7-0.4
		c0.2,1.1,0.7,2.8,0.7,2.8s1.3-1.5,1.9-2.1c0.6-0.7,1.6-1.4,1.5-0.2c-0.1,1.2-0.5,2.4-0.5,2.9c0.1,0.5,0.8,0,1.4-0.8
		c0.6-0.8,0.2-1.5,0.6-0.8c0.5,0.7,0.2,1.8,0.7,1.7c0.5-0.1,2.6,1.2,2.5,0.2s-0.5-1.8-0.1-3.3c0.5-1.5,1.4-2.1,1.6-0.9
		c0.2,1.1,2.6-2.7,3.8-1.1c1.2,1.7,1.3,3.3,1.3,3.3s2-2.9,2.7-1.5c0.6,1.4,0,2.4,0.4,2.8s2.6-3.2,3-2s0.2,1.9,0.6,2.3
		c0.4,0.4,1.6-2.3,2.1-1.9s0,0.9,0.3,1.5s0,1.4,1.8,0.2c1.8-1.2,3.4-2.6,3.5-1.6s-0.5,3.2-0.5,3.2s2.8-3.3,2.8-1.9s-0.1,1.9,0.1,2.5
		s3.8-0.6,2.6,0.5c-1.2,1.2-2.5,2.1-2.9,2.5s-1.2,1.2-0.3,1.4c0.9,0.2,0.8,2.8,1.8,0.5s2-4.8,2.1-3.3c0.2,1.5-0.3,1.5,1.2,0.9
		s3.5-1,2.8,0s3.1-0.3,1.1,1.5s-3.7,2-2.9,2.4c0.9,0.3,3.2,0.5,2,1.7s2.4,2.2,2.2,0.9c-0.2-1.3-1-4.3,0.3-4.3s1.3,1.1,1.7,1.8
		c0.3,0.7,0.5-1.5,1.8-1c1.3,0.4,2.1-0.2,1.3,1.4s0,1.4,1.6,2.2c1.6,0.8,1.2,1-0.7,1.7s-1.1,0.9-0.2,1.7c0.9,0.8,1.7,3.8,2.1,1.9
		c0.4-2,1.7-4.4,1.8-2.7c0.1,1.6-1,2.5,1,2.1s4.2-1.4,2.7-0.1c-1.6,1.4-3.1,2-2.1,2.2c1.1,0.2,1.5-0.3,2,0.4
		c0.5,0.7-0.1,1.2-0.7,1.6c-0.5,0.4,3,2.4,4.1,2c1.2-0.4,3.3,0.7,2.2,1.4c-1.1,0.7-2.3,1.2-1,1.7c1.3,0.4,4.3,0,3.4,0.9
		c-0.8,0.9-1.4,1.4-0.6,1.9c0.8,0.5,2.9,0.9,2.4,1.9s0.5,2.3,0.5,2.3s1.1,1.6,2.4,2.2c1.3,0.6,2.6,1.2,2,1.8
		c-0.6,0.7,0.5,0.6,1.2,2.5s1.4,2.5,0.8,3.5c-0.5,1,0.1,0.3,0.6,2.2s0.4,0.2,2.7,1.2s2.8,0.8,3.1,1.8s1,1,2,2.5s-0.3,1.5,2.5,1
		s2.8-0.8,3.8,0.5s1.5,1.6,1.3,2.8c-0.3,1.2-0.6,1.9,1.7,1.5c2.3-0.5,2.4-1.5,3,0.2s0.9,3.8,1.8,3.2c0.9-0.6,3.1-2.6,4-1
		s2.3,1.6,3.5,2.9s1.2,1,3.4,1.5c2.3,0.5,3.2,0.3,2.9,1.7c-0.3,1.4,0.6,1.5,2.8,1.4s3.3,0.2,3.5,0.7s0.1,1.9,2.5,1.3
		c2.5-0.6,4-1,3.7,0.3c-0.3,1.4,0.3,2.4,1.6,2.2c1.3-0.2,1.2-0.7,2.8,0.1c1.6,0.8,1.8,0.4,3.4,1.5s5.6,1,7.7,2.9s2.3,2.4,4.1,2
		c1.8-0.4,4,0.4,4.6,1.2s0.9,1.5,3.7,1.6c2.8,0.1,5.1-1,5.8,0.6c0.8,1.6-0.3,0.7,2.3,1.6c2.6,0.9,3.2-0.4,4.3,1.1
		c1.1,1.5,2.1-0.2,3.6,1.7s3.2-0.4,3.5,1.1s1.7,2.9-1.1,3.1s-5.8-0.8-8.4-1.3s-0.9-0.3-4.5-0.5c-3.6-0.1-5.7-1.4-6.2-1.8
		c-0.5-0.4,1.2,0.4-3.3,0.1c-4.5-0.3-3.9-0.8-7.6-1.8s-3.3-0.7-7.8-1.2s-4.3-1.1-8.1-1.7c-3.8-0.7-3.5-0.6-8-0.9
		c-4.5-0.3-5.1-1.2-6.9-1.5c-1.8-0.2-1.9-1.2-3.6-0.6c-1.7,0.6-12.1-1.7-14.5-2.3c-2.4-0.7-7.1-0.6-7.6-1.8s-2.7,0.1-4.2-0.1
		c-1.5-0.2-6-0.8-6-0.8s3.7,1.3,4.3,2.5c0.7,1.2,1.6,1.9,3.6,1.6c2-0.4,4.1-0.5,6.4,0.9c2.4,1.5,3.5,1.1,5.6,3.1s2.5,1.6,3.7,4.2
		c1.2,2.6,1.3,2,1.5,4.6s0.2,3.7,0.2,3.7s-0.9-0.2,0,1.4c0.9,1.6,3,4.4,0.5,3.6c-2.5-0.9-4.1-2-4.1-2s0.1,3.8-0.8,3.8
		c-0.9,0-1.9-0.6-2.8-2.3c-0.9-1.8-2.3,0.6-2.3,0.6s-1.5-0.2-1.9-2.1c-0.4-2-0.4-1.8-1.1-3.7c-0.7-1.9-1.5-3.3-1.5-3.3
		s-4.2,1.9-6.1,2.1c-1.9,0.2-3.3,1.6-6.1,2s-5.4,0.3-6,0s0.9,1.6-3.1,1.2c-4-0.4-10.6-1-12.5-5.4c-0.2-1.3-4.7-3.8-6.2-8.7
		c0.1-0.3-1-3.5-1.4-5c-0.5-1.5-0.8-3.8-0.8-3.8s-6.3,4.3-10.3,2.5s-5.1-2.7-6.1-5.1c-1.1-2.4-2.1-3.6-2-6.1c0.1-2.5,0-4.3-0.5-5.1
		c-0.4-0.9-0.7-0.9-2-3.1s-2.1-6.1-3.6-6.9c-1.4-0.8-0.4-0.9-4.1-0.9s-5,0.5-8.5-0.9s-5.8-1.4-8.1-4.7c-2.3-3.3-4.6-4.8-5.8-6.8
		c-1.1-2-2.6-3.9-3-4.1s-1.1-0.1-3.2-0.5c-2.1-0.5-4.1-1.4-5.5-2.3s-4.8-2.8-6.4-3.1c-1.7-0.4-2-1.1-3.6-0.8c-1.6,0.3-4.6-0.4-6.7-1
		s-1.8,0.4-4.2,0.5c-2.4,0.1-3.5-0.6-4.1-0.6s-2.2,0.1-4.1,0.5c-1.8,0.4-1.8,0.5-4.4,0.1s-2.6-0.4-4.2-0.9s-2.6-0.5-2.3-1.8
		c0.3-1.2-0.5-1.4-1.6-1.9c-1.1-0.6-1.7-0.2-2.3-2.4c-0.6-2.2-1.8-2.6,0.1-3.3S78.8,460.1,78.8,460.1z"/>
	<path class="st178" d="M79.7,458.7c-0.3,0.3-0.1,0.9,0.4,1c0.4,0.1,0.9,0,1.2-0.3c0.7-0.5,1.4-1.2,2.2-1.3c0.3,0,0.7,0,1,0.1
		c0.7,0.2,1.4,0.5,2,0.8"/>
	<path class="st178" d="M81.8,460.9c0.3,0.5,0.9,0.8,1.5,0.7s1.1-0.4,1.4-0.9c-0.1-0.3-0.6-0.5-0.9-0.3"/>
	<path class="st178" d="M76.1,467.7c0.6,0.2,1.1-0.1,1.7-0.4c2.1-0.9,4.4-1,6.6-0.3c0,0.4-0.4,0.7-0.8,0.8c-0.4,0.1-0.8,0-1.2,0
		c-1.1,0-2.2,0.3-3.1,0.9"/>
	<path class="st178" d="M203.4,485.1c1.5,1,2.6,2.5,3,4.2c0.5,1.8,0.2,4.3,0.1,6.2c-0.1,1.6-1.3,3.4-1.9,0.9c-0.5-1.9-0.5-4-2.3-5.5
		c0.4,0.3,0.8,0.5,1.3,0.6c-0.4-0.1-0.7-0.2-1.1-0.2"/>
	<path class="st178" d="M136.3,466.4c-0.3,2.9,1.1,5.7,3.3,7.7c2.2,1.9,4.9,3.1,7.7,3.8c2.5,0.7,5.2,1.2,7.8,1.4
		c0.6,0,1.2,0.1,1.7-0.3c0.3-0.2,0.5-0.6,0.8-0.9c1.1-1.2,3-0.8,4.5-0.3c3.9,1.1,7.9,1.9,11.9,2.3c0.7,0.1,1.4,0.1,2,0.3
		c0.9,0.3,1.7,0.9,2.4,1.5c3.2,2.6,6.2,5.7,10.1,6.9c1.9,0.6,4.2,0.8,5.6,2.1c1.6,1.5,1.8,3.8,2.3,6s1.7,4.5,3.9,4.7
		c1.5-2.2-1.2-5.5,0.1-7.9c1.7,1.1,2.9,3.1,2.9,5.2c0.7-0.3,1.1-1.3,0.8-2"/>
	<path class="st178" d="M148.8,457.2c3.4-0.5,7.1,0.6,9.6,2.9c1.1,1.1,2.1,2.3,3.3,3.2c2.3,1.6,5.4,1.6,8.1,2.3
		c2.5,0.6,4.8,1.8,7,3.1c1.6,0.9,3.2,1.7,4.6,2.9c0.8,0.7,1.6,1.5,2.5,2.2c2.2,1.7,5,2.4,7.2,4.2c2.1,1.7,3.6,4.4,6.2,5.3
		c2,0.7,4.8,0.4,5.9,2.3"/>
	<path class="st178" d="M134.5,453.5c6.8,1.5,14,0.3,20.9,1.1c2.2,0.3,4.4,0.8,6.6,1.3c4.1,1,8.2,2.2,12,3.9
		c4.4,1.9,8.6,4.6,12.2,7.8"/>
	<path class="st178" d="M188.5,468.1c4.4,2.1,6.6,7,9.4,10.9c0.2,0.3,0.5,0.6,0.8,0.9c0.3,0.2,0.6,0.3,0.9,0.5
		c2.8,1.3,5.1,3.5,6.6,6.2"/>
	<path class="st178" d="M151.3,495.3c2.2-0.9,3.9-2.8,4.6-5.1"/>
	<path class="st178" d="M152.5,491.7c-1,1.1-2.2,2.1-3.5,2.8c-0.6,0.3-1.3,0.5-1.9,0.2"/>
	<path class="st178" d="M147.3,492.9c-0.4,1.1-1.3,2-2.3,2.4"/>
	<path class="st178" d="M161.4,507.1c2.4,1.5,3.7,4.3,6,6c1.6,1.1,3.6,1.6,5.5,1.9c1.6,0.3,3.2,0.5,4.7,0.7"/>
	<path class="st178" d="M170.6,517c1.2,0.3,2.4,0.5,3.6,0.7c0.5,0.1,1.3,0.1,1.4-0.5"/>
	<path class="st178" d="M174.7,516.5c0.9,0.5,2,0.8,3,0.6"/>
	<path class="st178" d="M171.6,519.2c1.3,0.3,2.8,0.3,4.1-0.1"/>
	<path class="st178" d="M173.1,521c1-0.3,2-0.5,3-0.8"/>
	<path class="st178" d="M181.7,493.4c-2.5,4.8-2.5,10.4-2.5,15.8c0,3.4,0,6.8,0.1,10.1c0,0.3,0.1,0.6,0.3,0.6c0.3,0,0.2-0.5,0-0.3"
		/>
	<path class="st178" d="M207.2,503.6c1.8,3.6-0.3,7.7,0.1,11.5c0.2,1.7,1,3.4,1.2,5.1c0.3,2.1-0.8,3.7-2.2,5.1c-1.4,1.5-3,3.1-5,3.4
		"/>
	<path class="st178" d="M207.6,517.5c-0.4,2.7-2.6,5-5.2,5.6"/>
	<path class="st178" d="M208.2,522.5c0.2,3-0.1,6.1-0.8,9c-0.2,0.9-0.5,1.9-1,2.7c-0.7,1-1.7,1.7-2.6,2.4"/>
	<path class="st178" d="M188.7,538.9c1.9,0.1,3.7-0.7,5.1-1.9c1.4-1.2,2.4-2.9,3.2-4.6"/>
	<path class="st178" d="M192.8,538.3c1.4-0.2,2.6-0.9,3.6-1.8c1-0.9,1.8-2.1,2.5-3.3"/>
	<path class="st178" d="M206.8,540.9c3.4-2.6,2.1-5.6,2.5-9.1"/>
	<path class="st178" d="M208,534.9c-0.4,3-2.4,5.7-5.1,6.9"/>
	<path class="st178" d="M209.9,521c0.6,0.2,1.3,0.1,1.9-0.2c0.6-0.3,1-0.8,1.4-1.4c2.2-3,3.2-6.8,2.8-10.5"/>
	<path class="st178" d="M226.8,505c0.4,4.5-1.2,9.2-4.2,12.6"/>
	<path class="st178" d="M233.2,508.4c0.2-0.1,0.4,0.2,0.4,0.4c0.8,3.5-0.2,7.2-2.4,10"/>
	<path class="st178" d="M241.6,511.3c1.3,3.7,0.7,8-1.4,11.3"/>
	<path class="st178" d="M247.8,515.6c0.2-0.2,0.4,0.1,0.5,0.4c0.8,3.1,0.2,6.6-1.5,9.3"/>
	<path class="st178" d="M255,517.3c0.8,2.9,0.2,6.2-1.6,8.6"/>
	<path class="st178" d="M261.2,519.6c1.1,2.3,1.1,5.1-0.2,7.3"/>
	<path class="st178" d="M269.2,521.8c-0.2,0.6,0,1.3,0.1,1.9c0.5,2.1,0,4.5-1.3,6.3"/>
	<path class="st178" d="M275.9,524.7c0.3,1.5,0.3,3,0,4.5c-0.2,1.1-0.7,2.2-1.7,2.7"/>
	<path class="st178" d="M283,526.7c0.8,2.2,0.3,4.8-1.4,6.4"/>
	<path class="st178" d="M290.1,528.5c0.1-0.1-0.2-0.2-0.2-0.1c-0.1,0.1,0,0.2,0,0.4c0.7,1.8,0.3,4-1,5.4"/>
	<path class="st178" d="M296.2,531.1c0.7,1.4,0.3,3.3-0.9,4.2"/>
	<path class="st178" d="M301.3,532.9c0.5,0.2,0.8,0.9,0.8,1.5c0,1-0.6,1.9-1.4,2.4"/>
	<path class="st178" d="M209.7,496.9c-0.8,1.9-0.4,4-0.2,6c0.3,3.1-0.2,6.2-1.4,9.1"/>
	<path class="st178" d="M211.9,500.8c-0.8,1.7-0.4,3.7-0.3,5.6c0.1,3-0.7,6-2.4,8.6"/>
	<path class="st178" d="M203.3,488.6c1.8,1,2.9,3,2.9,5"/>
	<path class="st178" d="M94.2,465.6c0.5,2.3,2.7,4.1,5.1,3.9"/>
	<path class="st178" d="M97.9,465.7c1.2,1.8,3,3.2,5,3.9"/>
	<path class="st178" d="M113.7,469.2c1,1.6,2.7,2.8,4.5,3.2"/>
	<path class="st178" d="M121,472.4c0.3,1.5,1.3,2.9,2.7,3.6"/>
	<path class="st178" d="M125,472.9c0.5,2.8,1.6,5.5,3.1,8"/>
	<path class="st178" d="M131,481.1c1,2.7,2.9,5.2,5.3,6.8"/>
</g>
<g class="st68">
	<path class="st179" d="M195.7,40.8c-0.6-0.3-1.2-0.6-1.8-0.9c-4.7,3.7-6.9,10.3-5.3,16.1c-1.3-1-3.2-0.7-4.5,0.3s-2,2.5-2.6,4
		c-1.4,3.5-2.1,8.1,0.7,10.7c0.8,0.7,1.8,1.2,2.5,2c2.2,2.4,1.1,6.2,1.4,9.4c0.5,5.7,6.7,10.2,12.3,9c-1.8,2.1-1,5.4,1,7.4
		c1.9,1.9,4.7,2.7,7.3,3.5"/>
	<path class="st179" d="M195.7,44.3c-0.1-3.3,1.6-6.5,4.2-8.4c2.6-1.9,6.2-2.4,9.3-1.3c1.6-6.1,8.2-9.6,14.4-11
		c3.9-0.9,8.1-1.2,11.9,0.1c3.8,1.3,7.1,4.5,7.7,8.5"/>
	<path class="st179" d="M238.4,34.5c2.8-3.9,8.1-5.8,12.7-4.4c-0.5-2.5,0.6-5.1,2.4-6.8c1.8-1.7,4.3-2.7,6.8-3.1
		c3.7-0.7,7.7-0.5,11.1,1.1s6.2,4.8,7,8.5c0.1,0.7,0.2,1.5,0.3,2.2"/>
	<path class="st179" d="M238.9,25.2c2.2-4.1,9.3-5.1,13.2-1.7"/>
	<path class="st180" d="M266.6,44.3c-0.7-5,2.3-10.3,7-12.3s10.6-0.4,13.7,3.6c0.2,0.3,0.5,0.7,0.9,0.6c0.4-0.1,0.2-0.9-0.1-0.6"/>
	<path class="st180" d="M259.3,33.2c1.3-2,3.7-3.3,6.1-3.3s4.8,1.2,6.2,3.2c0.3-0.1,0.3-0.6,0.1-0.7"/>
	<path class="st179" d="M277.6,25.7c4.4-4.7,12.7-5,17.3-0.5c4.7-5.9,15.5-5,19.2,1.6c5.2-5.6,13.4-8.2,20.9-6.6
		c5.2,1.1,10.5,5.7,9.2,10.8c7-1,14.4,4.2,15.8,11.1c3.8,0,7,3.9,6.5,7.6c5.1,1.4,9.3,5.6,10.7,10.7c1.3,5.1-0.3,10.9-4,14.6"/>
	<path class="st180" d="M283.1,41c4.3-4.6,10.5-7.6,16.8-8c6.3-0.5,12.8,1.5,17.8,5.5"/>
	<path class="st180" d="M291.8,29.1c-0.6,0-0.4-1,0.1-1.4c3.4-2.9,8.5-3.5,12.4-1.4"/>
	<path class="st180" d="M309.4,48.8c2.1-6,6.9-11.1,12.8-13.5c4.7-1.9,10.4-2.1,14.7,0.6c4.3,2.7,6.7,8.6,4.4,13.2
		c-0.1-0.4-0.1-0.8-0.2-1.2"/>
	<path class="st180" d="M341.1,41.4c2.9-1,6.3-0.4,8.7,1.5c2.4,1.9,3.8,5,3.6,8c2.3-1,5.1,0.2,6.4,2.3c1.4,2.1,1.6,4.7,1.3,7.1"/>
	<path class="st179" d="M371.1,69.1c2.1,2.9,3.5,6.3,4.1,9.8c0.4,2.4,0.3,4.9-0.9,7c-1.1,1.9-3.2,3.3-5.4,3.5
		c-2.2,0.2-4.5-0.8-6-2.5c-0.5,3.4-3.5,6.3-6.9,6.5s-6.8-2.9-6.6-6.3"/>
	<path class="st180" d="M199.4,49.4c-2.1,3.6-2.1,8.4-0.1,12c-2.1,1.1-4,2.7-4.9,4.8c-1,2.1-0.8,4.9,0.9,6.5c1.9,2,5.1,1.9,7.9,1.7
		c0.4,5.8,5,11.1,10.7,12.2c1.7,0.3,3.7,0.3,5.1-0.9"/>
	<path class="st180" d="M232.7,40.5c-2.5,1.6-4.1,4.4-4.5,7.3c-0.3,2.9,0.7,6,2.7,8.1c-2,1.4-4.2,3.1-4.9,5.5
		c-0.8,2.4,0.6,5.6,3.1,5.7c0.3,3.2,2.4,6.1,5.3,7.4c2,0.9,4.3,1,6.3,2.1c2,1,3.5,3.5,2.4,5.4"/>
	<path class="st180" d="M302.3,81.6c0.9-1.2,1.8-2.5,3-3.4c2.2-1.7,5.4-2.1,8-0.9s4.7,3.8,7.5,3.6c3.1-0.2,4.8-3.8,5.2-6.9
		c3.6,0.3,7,2.6,10.5,1.9c1.6-0.3,3.1-1.3,4.4-2.4c2.3-1.9,4.2-4.4,4.9-7.3c0.6-2.9-0.4-6.3-3-7.8s-6.5-0.1-7.1,2.8
		c0.2-2.9-1.7-5.7-4.4-6.7c-2.7-0.9-6,0.1-7.6,2.5"/>
	<path class="st180" d="M345.9,67c1.9,2.3,3.8,4.8,4.5,7.7c0.7,2.9-0.3,6.5-3,7.8"/>
	<path class="st180" d="M271.2,45.9c0.2-0.7-0.9-1-1.6-0.8c-2.8,0.5-5.7,1.1-7.9,2.7c-2.7,1.9-4.2,5.3-4,8.6c-1.5,0-2.9-0.9-4.4-0.9
		c-1.6,0-3.1,1.1-4.1,2.5c-2.6,3.6-2.4,8.9,0.4,12.4c2.8,3.5,7.7,5,12,3.8c2-0.6,4-1.8,4.7-3.8c0.8-2.1,0-4.4-0.7-6.4"/>
	<path class="st179" d="M267.2,222.6c-0.2-3-2.7-5.6-5.6-5.9c-2.9-0.3-6,1.7-6.8,4.6c-0.4-4.5-5.3-8-9.6-6.9c-2.6-2.1-6-3.7-9.3-3
		c-3.3,0.6-6.2,4-5.4,7.2c0.9,0.6,1.7,1.1,2.6,1.7c-4.2,0.1-7.7,4.2-7.5,8.4s3.8,7.8,7.9,8.5c-4.8-0.8-9.9,2.4-11.1,7.1
		c-1.3,4.7,1.5,10.1,6.1,11.7c1.4,0.5,2.9,0.7,4.4,0.8c1.9,0.2,4,0.3,5.6-0.8c1.6-1.1,2.1-3.8,0.5-4.9"/>
	<path class="st180" d="M244.9,213.6c2-3.7,7.2-5.3,10.9-3.2c2.3,1.3,3.9,3.9,3.5,6.5c-0.4-0.3-0.9-0.6-1.3-0.9"/>
	<path class="st180" d="M265.5,223.9c-0.4,0-0.3-0.7-0.1-1c1.1-1.3,2.7-2.5,4.4-2.3c1.7,0.2,3.1,2.2,2.3,3.7
		c1.7,0.3,3.5,0.1,5.2-0.5c-2-3.7,0.5-8.6,4.5-10.1c2.5-0.9,5.4-0.7,7.5,0.9c2,1.6,2.9,4.8,1.5,7.1c2.8-1.3,6.5-1.4,8.9,0.6
		s2.9,6.2,0.5,8.2"/>
	<path class="st179" d="M295.1,231.2c1.7-1.6,4.2-2.2,6.5-1.6c2.2,0.6,4.1,2.5,4.7,4.7c2.9-3,7.7-3.9,11.5-2.2
		c3.8,1.8,6.2,6.1,5.7,10.2c-0.5,4.1-3.8,7.8-7.9,8.6c3,1.3,5,4.6,4.8,7.8c-0.3,3.3-2.8,6.2-6,7c3.1,2.8,2.7,8.4-0.8,10.8
		c-2.6,1.8-6.2,1.5-9.2,0.4c-4.7-1.8-8.6-6.4-8.1-11.4c0.2-2.2,1.5-4.4,3.6-5.2c2.1-0.8,4.9,0.6,5.1,2.8"/>
	<path class="st179" d="M237.1,257.9c-1.9,0-2.8,2.4-2.6,4.3c0.6,5.1,5.9,8.1,10.8,9.4c3,0.8,6.2,0.9,7.3-1.6
		c0.4-0.8,1.2-1.4,1.7-2.1c0.9-1.4,1.9-2.8,2.8-4.3"/>
	<path class="st180" d="M249.8,259.2c3.9,2.9,8.9,4.5,13.8,4.4c1.9,0,3.8-0.4,5.3-1.6c1.8,2.9,4.7,5.2,8,6.2
		c1.7,0.6,3.6,0.8,5.3,0.4c3-0.7,5.3-3.4,5.7-6.4c0.4-3-1.3-6.2-4-7.5"/>
	<path class="st180" d="M248.3,249.7c-0.3,0.8-1.4,0-1.8-0.7c-0.9-1.7-1.7-3.5-1.8-5.5c-0.2-2.8,1.3-5.6,3.6-7
		c2.4-1.4,5.5-1.5,7.9-0.1c-0.6,0.1-1.2-0.1-1.6-0.5c-1-2.1,0.9-4.4,2.8-5.5c5.1-2.8,12.1-1.3,15.6,3.3c1.5,2,2.4,4.7,1.3,6.9"/>
	<path class="st180" d="M232.6,231.5c0-0.4,0-0.9,0-1.3c2.7-2.3,6.4-3.3,9.8-2.7c3.5,0.6,6.6,2.8,8.3,5.9c0.3,0.5,0.5,1.2,0,1.6"/>
	<path class="st180" d="M275.5,249.4c1.3-3.6,4.9-6.3,8.7-6.5c3.9-0.1,7.7,2.3,9.2,5.8c-1-2.5,1.2-5.6,3.8-6c2.7-0.5,5.4,1.1,7,3.4
		c1.6,2.2,2.1,5.3,0.8,7.8c-1.3,2.4-4.8,3.6-7,2"/>
	<path class="st179" d="M240,272.1c-1.6,2.8-1,6.7,1.4,8.9c0.2,0.2,0.4,0.3,0.4,0.6c0.1,0.5-0.5,0.8-1,0.9c-2.2,0.6-4.4,1.2-6.3,2.5
		c-1.8,1.3-3.2,3.6-2.7,5.8c0.4,2.2,3.1,3.9,5.1,2.7c-1.9,0.1-3.8,0.2-5.5,1.2s-2.8,2.9-2.2,4.7c0.5,1.5,2.1,2.4,3.7,2.5
		c1.6,0.1,3.1-0.4,4.6-0.9c-0.2,1.9-0.4,4.1,0.8,5.6c0.8,1,2,1.5,3.2,1.9c2.3,0.6,4.9,0.6,7-0.4c2.2-1,3.8-3.2,3.9-5.6
		c0.1-1.9-0.9-3.8-2.5-4.9s-3.7-1.2-5.5-0.4c-0.3,1-0.6,2.1-0.4,3.1c0.3,1,1.4,1.9,2.4,1.5c0-0.8,0-1.5,0-2.3"/>
	<path class="st179" d="M313.2,276.4c-0.6,1.5,0.7,3.1,2.2,3.6s3.1,0.4,4.7,0.7c4.4,1,6.9,6.9,4.5,10.7c-2.1,3.4-7,5.3-7.2,9.3
		c3.1-0.6,6,2.7,5.7,5.9c-0.3,3.1-3,5.7-6,6.7c-3,1.1-6.2,1-9.4,0.9c2.1,1,4.3,2,5.6,3.9c1.3,1.9,1.5,4.8-0.4,6.3
		c2.1,0.8,3.6,3.1,3.5,5.4s-1.7,4.4-3.9,5.1c1,1.6-1.5,4.3,0.1,5.4c0.4,0.3,0.9,0.3,1.4,0.4c2.9,0.6,3.4,5.1,1.4,7.2
		c-2,2.2-5.3,2.6-8.3,2.8c1.8,2-0.1,5.9-2.8,5.6c2.1,2.5-0.6,7.2-3.8,6.6c0.1,1,0.1,2.1,0.2,3.1c2.9-1.7,7-0.8,8.8,2s1,7-1.8,8.9
		c2.7-0.6,5.5,1.1,6.6,3.6c1,2.5,0.2,5.6-1.9,7.4c2-1.2,4.7-0.4,6.3,1.2c1.6,1.7,2.3,4,2.8,6.3"/>
	<path class="st179" d="M239.8,392.9c-1.1-2-0.7-4.6,0.9-6.2c1.6-1.6,4.2-2,6.2-0.9c0-1.6,0-3.3,0-4.9c-1.7,0.4-3.5-0.8-4.1-2.5
		c-0.6-1.6-0.1-3.5,0.9-5c-4.1-0.1-7.9-3.7-8.1-7.8c-0.2-4.1,3.1-8.1,7.2-8.7c0.8-0.1,1.8-0.4,1.7-1.1c0-0.3-0.2-0.6-0.5-0.8
		c-1.9-1.9-4.5-3-6.8-4.5s-4.4-3.8-4.4-6.5s3.3-5.2,5.6-3.6c0.5-1.3,1.5-2.4,2.7-3.1c-2.4,0.1-4.8-1.7-5.4-4.1
		c-0.6-2.3,0.5-5,2.6-6.2c1.4-0.7,3.3-1.3,3.3-2.9c0-1-1-1.8-1.7-2.5c-3.1-3.1-1.9-9.2,2-11"/>
	<path class="st180" d="M264.7,215.9c0.3-0.2,0.1,0.6-0.2,0.4c-0.3-0.2-0.1-0.7,0-1c0.9-1.7,2-3.6,3.8-4.4c1.8-0.8,4.4,0,4.6,2
		c-0.6-3.8,1-7.8,4-10.2s7.3-3,10.8-1.6c3.2,1.3,5.9,4.8,4.9,8.1"/>
	<path class="st179" d="M284.6,208.3c1.9,0.1,3.8-0.1,5.7,0.3c1.9,0.4,3.7,1.6,4.1,3.5c2-0.9,4.5,0.5,5.5,2.5s0.8,4.4,0.6,6.6
		c0,0.2-0.1,0.4-0.3,0.5c-0.2,0.1-0.3-0.3-0.1-0.3"/>
	<path class="st179" d="M269.9,210.7c-1.6-2.1-2.2-5-1.4-7.5c0.5-1.5,1.3-3.4,0.2-4.5c-0.7-0.7-1.8-0.7-2.9-0.8
		c-6.1-0.6-10.5-8.1-8-13.7c0.5-1.2,1.3-2.3,1.2-3.6c-0.2-3.2-5-3.7-6.5-6.5c-1.1-2.1-0.1-4.5,0.4-6.8c0.6-3.2,0.1-6.5-1.4-9.4
		c-4.5,0.8-8.6-5-6.3-8.9c1.4-2.4,4.5-5.2,2.6-7.2c-1.3,0-2.6,0-3.9,0c-1.6-1.6-1-4.4-2.2-6.3c-1.9-2.7-6-1.5-9.4-1.7
		c-5-0.3-9.3-5.2-8.9-10.3c-2.3-2.2-5.8-3-8.8-2c0.4-1.7-1.7-2.6-3.3-3.3c-4.4-1.9-7.1-7.3-5.9-12c1.2-4.7,6-8.2,10.9-7.8
		c0,1.9,0,3.8,0,5.8c-0.9,0.3-1.8,0.7-2.6,1"/>
	<path class="st179" d="M291.5,209.7c-0.8-0.9,0.6-1.9,1.7-2.4c3.5-1.7,5.3-6.3,3.9-9.9c-0.8-2-2.4-4-1.5-5.9c0.4-0.9,1.4-1.5,2-2.3
		c0.9-1.1,1.2-2.5,1.5-3.9c1.4-6.5,2.8-13.5,0.4-19.8c-0.7-1.9-1.8-3.9-0.9-5.7c0.3-0.7,0.9-1.2,1.3-1.8c1-1.6,1-3.6,1.5-5.5
		c0.5-1.8,2.3-3.6,4.1-2.9c1.1,3.3,4.7,5.5,8.1,5c-0.1-1.8-0.1-3.5-0.2-5.3c1.3-1.4,3.4,0.3,4.9,1.5c3.3,2.5,8.4,1.9,11.1-1.2
		c2.7-3.1,2.5-8.2-0.4-11.1c2.5,1.3,6,0.5,7.7-1.8s1.3-5.9-0.8-7.8"/>
	<path class="st179" d="M308.7,102.6c-2.8,1.8-4.4,5.6-3.1,8.7s5.6,4.6,8.3,2.6c-2.1,3.5-0.3,8.4,2.9,10.9s7.5,3.2,11.6,3.4
		c3.9,0.2,7.9,0,11.5-1.6c3.6-1.6,6.6-4.9,7-8.8c2.9,2.1,7,0.8,9.9-1.3c7.3-5.5,10.2-16,6.9-24.4c-0.4-1.1-1.8-2.3-2.6-1.5"/>
	<path class="st180" d="M327.8,109.6c1.4,1.8,3.7,2.5,5.9,3.1c4,1.1,8.2,1.9,12.2,1s7.8-4,8.5-8.1"/>
	<path class="st180" d="M330.4,86.1c0.1,5.6-5.3,9.8-10.7,11.4c-2.6,0.8-5.5,1.2-8.1,0.2s-4.6-3.8-3.9-6.4c-6,4.6-15.4,3.9-20.7-1.4
		c-2.2-2.3-3.8-5.4-3.4-8.6s3.3-6.1,6.5-5.8"/>
	<path class="st180" d="M232.1,95.8c-1.8,3.8-0.1,8.6,3.1,11.4c3.1,2.8,7.4,4,11.5,4.8c2.7,0.5,5.5,0.8,8.1,0.2
		c2.6-0.7,5.1-2.5,5.9-5.1c-1.2,2.9-0.5,6.5,1.4,9c1.9,2.6,4.7,4.3,7.7,5.3c8.1,2.8,18.1,0.6,23.1-6.4c1.9-2.8,3-6.2,2.5-9.6
		c-0.6-3.3-2.9-6.4-6.2-7.4"/>
	<path class="st180" d="M291.1,117.5c2.3,3.2,6.6,4.6,10.5,4.2s7.6-2.3,10.8-4.6"/>
	<path class="st180" d="M219.8,93.2c0.5-0.7,1.5,0.2,2,0.9c1.3,1.8,4,2.3,6.2,1.8s4.2-1.7,6.3-2.6s4.5-1.5,6.6-0.6
		c3,1.3,4.1,4.9,6.5,7.1c2.8,2.6,7.1,2.9,10.8,2.1c2.4-0.5,4.7-1.5,6.4-3.2s2.5-4.4,1.7-6.7c-0.8-2.3-3.6-3.8-5.8-2.8"/>
	<path class="st180" d="M227.6,115.1c0.6,4.4,2.7,8.6,6.3,11.1c3.6,2.6,8.6,3.2,12.4,1.2c0.8-0.4,1.7-0.9,2.5-0.5
		c0.3,0.2,0.5,0.5,0.7,0.7c2.7,3.4,7.4,5,11.7,4.1c4.2-0.9,7.9-4.3,9-8.4"/>
	<path class="st180" d="M274.1,146.1c1.1,2.2,2.8,4.1,5,5.2c2.3,1.3,5.2,1.7,7.7,0.9c2.5-0.9,4.5-3.2,4.7-5.8
		c4.4,3.9,12,3.3,15.8-1.2c1.3-1.5,2.2-3.6,1.6-5.5s-3.1-3.2-4.7-2"/>
	<path class="st180" d="M257.1,139c-0.5,0.2-0.1,1,0.4,1.3c5.9,3.8,13.4,4.9,20.1,3s12.5-6.9,15.4-13.2c4.6,2.6,10.9,1.9,14.8-1.6"
		/>
	<path class="st180" d="M312.9,282.4c2.5,1.9,2,6.3-0.7,7.8c-2.7,1.6-6.5,0.3-8-2.4c-1.7,0.7-1.1,3.2-1.9,4.8
		c-1,2.1-4.2,2.2-5.9,0.7s-2.2-4-2.2-6.3c-0.9,0-1.7,0.1-2.6,0.1c0.3,1.1,0.5,2.2,0.1,3.3c-0.4,1-1.6,1.9-2.6,1.3
		c-0.6-0.3-0.9-1-1.2-1.7c-0.7-1.9-1.5-3.9-2.2-5.8c-1.5,0.7-3.1,1.2-4.7,1.2c-1.6-0.1-3.3-0.9-3.9-2.4c-0.2,2.6-2.7,4.7-5.2,4.6
		c-2.6-0.1-4.8-2.5-4.8-5.1c0-1.5,1-3.1,2.4-3.1"/>
	<path class="st180" d="M291.3,305.2c2-0.4,4.3,0.5,5.4,2.3c1.1,1.7,1.1,4.2-0.1,5.9c-1.8-0.1-3.7-0.6-5.3-1.4c0,0.6,0,1.3,0,1.9
		c1.7-0.4,3.5-0.2,4.9,0.8s2.2,2.8,1.8,4.5c-0.5,1.6-2.4,2.8-4,2.2c-0.9-0.3-1.6-1.2-2.4-1.8c-0.8-0.6-2-1-2.8-0.3
		c-1.2,0.9-0.6,3.4-2.1,3.9c-0.4,0.1-0.7,0-1.1,0c-2.7-0.5-5.7-1.2-7.1-3.6c-0.2-0.3-0.3-0.6-0.6-0.8c-0.6-0.5-1.5,0-2,0.6
		s-0.8,1.3-1.4,1.8s-1.4,0.6-2.1,0.6c-4.9,0-9.4-4.4-9.4-9.3c0-1.7,0.4-3.7-0.8-5c-0.7,0-1.3,0.4-2,0.6c-2,0.4-3.3-2.3-3.1-4.3
		c0.4-3.9,4.1-7.2,8-6.9c3.9,0.3,7,4.7,5.8,8.4c-0.9,0.5-1.7,1-2.6,1.5c0.1-1.8-0.4-3.6-1.3-5.2"/>
	<path class="st180" d="M262.9,311.7c-2.8-0.5-5.1,2.3-6.1,5c-0.4,1.2-0.7,2.5-0.5,3.8s1.1,2.5,2.4,2.8c0.7,0.2,1.4,0.1,2,0.5
		c0.7,0.6,0.5,1.7,0.1,2.5s-1,1.7-0.9,2.6c0.1,0.8,0.7,1.4,1.3,1.9c2,1.8,4.8,3.2,7.4,2.4c2.2-0.7,3.7-3.3,3.2-5.6"/>
	<path class="st180" d="M248.3,380.9c-0.5-1.8-0.9-3.8-0.2-5.5s3.1-2.8,4.5-1.6c-0.1-2,0.5-4.1,1.7-5.7c-3.1-1.3-5.2-4.7-4.9-8
		s3-6.3,6.3-7c2-0.4,4.6,0.5,4.6,2.6c-0.5-2-1-4-0.8-6s1.6-4,3.5-4.5c2.5-0.6,5,1.4,5.9,3.8s0.5,5,0.1,7.6c1.4-0.1,2.9,0.2,4.1,1
		c0.5-3.2,4.5-5.3,7.4-4c2.9,1.4,3.9,5.8,1.7,8.2c1.8-1.7,5.2,1.1,4,3.2c2.3-3,7.7-0.8,8.6,2.8c0.8,3.7-1.6,7.4-4.6,9.7
		c3.3-1.4,7.4-0.6,9.8,2s3,6.8,1.2,9.9c1.8-1.9,5-2.4,7.3-1.2c2.4,1.2,3.8,4,3.4,6.6"/>
	<path class="st180" d="M273.8,375.3c-0.1-0.5,0.2-1,0.5-1.4c1.9-2.1,5.6-1.4,7.4,0.7s2.3,5.1,2.5,7.9c1.6-0.7,3.5-1,5.2-0.4
		c1.6,0.6,2.9,2.4,2.7,4.1"/>
	<path class="st180" d="M277.2,353.3c-0.4-2.4-0.4-5,1-7s4.5-2.9,6.4-1.4c0.9-0.9,0.6-2.3,0-3.4c-0.6-1-1.6-1.9-2-3
		c-0.5-1.2-0.5-2.5-0.2-3.7c0.9-3.4,4.3-5.8,7.8-5.8s6.8,2.5,7.9,5.8s0,7.2-2.6,9.5c2.3,0.5,3.8,2.8,4,5.1c0.3,2.3-0.5,4.6-1.3,6.7"
		/>
</g>
<path class="st181" d="M195.1,87.1c0,0-8.4-2.3-6.1-8.4c2.3-6.1,1.2-7.7-0.8-11.1c-1.9-3.5-1.9-5.4,0.8-8.4
	c2.7-3.1,10.4-3.8,11.5-3.5c1.2,0.4,0.8-8.8,5.4-8.1c4.6,0.8,8.8,7.7,7.7,11.1c-1.2,3.5-1.5,11.9,2.3,13.8s6.7-5.6,14.1-2.4
	c7.4,3.2,8.9,13.2,8.9,14.7s7.3,7.7,13.1,5.4c5.8-2.3,1.9-9.2,8.1-9.6c6.1-0.4,9.2,5.4,9.2,8.4c0,3.1,3.1,6.9,3.1,9.6
	s-1.2,10.7,3.8,9.6c5-1.2,6.5-4.3,12.7-4.2c6.2,0.1,8.3,5.2,5,9.4c-3.3,4.3-2.2,5.2-0.6,6.1s7.3-3.7,9.9-6s6.8,5.2,6,5.6
	s5.9-9.5,9.4-6.4s6.4,5.5,10.7-2c4.3-7.6,7.4-10.3,10-5.3c2.7,5,5.8,10-1.5,14.2s-7.7,9.2-16.5,9.6c-8.8,0.4-20.4-7.3-19.6-2.7
	c0.8,4.6-4.1,11.2-13.6,10.6c-9.4-0.6-16-5.2-15.2-7.9c0.8-2.7-2.1,1.8-8.8,5.8c-6.8,3.9-11.5,5-14.2,1.2s-3.9-7.8-6.5-7.7
	s-6.5,6.2-10.4,1.9c-3.8-4.2-1.6-12.5-4.6-12.8c-3.1-0.3-8.4,2-10.3,0.9c-1.9-1.2-8.4,1.2-8.4-6.1c0-7.3-0.8-12.2,1.4-13.1
	s-5.8,2.8-8,1.5c-2.2-1.2-2.6-6.1-2.6-7.7L195.1,87.1z"/>
<path class="st182" d="M260.4,146.2c0,0,0,7.3,9.2,10s13.1,3.5,15.7,1.5c2.7-1.9,4.6-3.1,7.7-1.9c3.1,1.2,5.5-3.1,6.1-5
	c0.7-1.9,5.5-3.3,6.3-4c0.8-0.6,4.8,5.8,7.9,2.4c3.1-3.4,7.7-9.9,2.7-7.6c-5,2.3-7.7,5-10,2.7s-5.8-8.4-9.2-5
	c-3.5,3.5,0,2.7-6.1,5.8s-8.4,4.2-12.3,3.8C274.6,148.5,260.4,146.2,260.4,146.2z"/>
<path class="st182" d="M229.7,228c3.5-5,9.7-4.9,9.7-0.5c-0.1,4.4,1.1,6.7,4.2,6.7c3.1,0,0-0.4-0.4,5s3.5,7.7,6.5,6.1
	c3.1-1.5,6.9-6.5,10-2.7s6.1,8.4,0.8,10c-5.4,1.5-6.1-4.2-9.2-1.2c-3.1,3.1-11.5-5.4-12.7-3.1c-1.2,2.3-1.5,5-5.4,3.5
	c-3.8-1.5-7.7-1.2-7.7-4.2c0-3.1,3.8-4.2,5.4-5c1.5-0.8,3.8-2.7,3.1-3.8c-0.8-1.2-6.8-0.8-6.1-4.8C228.5,229.9,229.7,228,229.7,228z
	"/>
<path class="st182" d="M243.6,271c9.2-1,8,1.1,10.9-3.1c2.8-4.3,3.5-6,6.6-4.3s0.3-4.8,9,0.2s9,6.6,12.1,5s4.3-6.2,3.2-8.1
	c-1.2-1.9-1.5-5.8-1.5-5.8c3.6,9.3,3.4,12.3,1.1,15.7c-2.3,3.5-3.5,4.2-7.3,5s-9.6-1.5-11.5,3.5s0,9.6-4.2,10s-5.8-3.1-8.1-0.4
	c-2.3,2.7-7.3,1.5-8.8,3.8s-7.9,5.2-8.2,1.1c-0.3-4.2,4.7-7.2,6.3-7.2c1.5,0,3.8-1.5,3.1-3.5c-0.8-1.9-1.9-3.1-3.5-5.4
	c-1.5-2.3-0.6-7.1-0.6-7.1L243.6,271z"/>
<path class="st182" d="M313.8,287.5c-2.3,7.3-17.6,9.5-18,10.7c-2.9,7.7,2.7,8.4-3.5,9.6c-6.1,1.2-10.4,1.9-13.4-0.8
	c-3.1-2.7-1.5-2.3-5,1.2s-12.5-0.3-9.9,0s5.7,9.9,13.4,8.8c7.7-1.2,15.6-4.3,15.6-4.3s3.9-4.5,5.3,1.4s3.4-1.5,1.4,5.9
	s-9.4-3.1-5.4,10.2c4.1,13.2-2.8,14.4-6.6,9.9c-3.7-4.5-5-7.7-5.8-2.7s3.9,9.1,3.5,12.3c-0.4,3.1-5.4,7.7-10.4,6.9
	c-5-0.8-14.6-4.2-5-0.8c9.6,3.5,13.8,5.4,14.6,11.5c0.8,6.1,3.4,8.6-0.8,11.5s-3.8,7.7-7.3,8.8c-3.5,1.2-9.6,5-9.6,5s10,0,14.2-0.8
	s10.7,0,14.6-0.4c3.8-0.4,10,0.9,11.9,0.3s6.2,2,7.3,2c1.2,0-4.2-3.1-4.6-6.9s-3.5-11.5-6.1-11.5c-2.7,0-2.3-0.8-3.5-3.8
	c-1.2-3.1-1.5-4.6-2.3-6.5s-9.2,0.8-0.8-6.5c8.4-7.3,7.3-11.5,10-11.5s2.8,4,6.5,0s3.5-6.9,0.4-8.1s-6.5-0.8-3.8-5s6.3-5.1,3.9-8.7
	s-5.1-2.8-6.6-4.4c-1.5-1.5-3.5-3.8-0.8-6.9s3.1-1.9,5.8-1.5s1.4,2,6.5-1.5s4.8-8.5,2.2-9s-5.6,0.1-6.4-1c-0.8-1.2,1.9-0.8,4.2-6.5
	s4.6-6.5,1.9-8.1S313.8,287.5,313.8,287.5z"/>
<g class="st68">
	<rect x="51.1" y="606.8" class="st183" width="329.7" height="71.1"/>
</g>
<radialGradient id="SVGID_00000158011006032885973140000017641597670216471950_" cx="278.1252" cy="164.8409" r="98.942" gradientTransform="matrix(1 0 0 -1 0 566.0063)" gradientUnits="userSpaceOnUse">
	<stop  offset="0" style="stop-color:#FFFFFF"/>
	<stop  offset="0.7924" style="stop-color:#FFFFFF;stop-opacity:0"/>
</radialGradient>
<ellipse style="display:none;fill:url(#SVGID_00000158011006032885973140000017641597670216471950_);" cx="278.1" cy="401.2" rx="118" ry="75.2"/>
<text transform="matrix(1 0 0 1 49.9994 31.8898)"><tspan x="0" y="0" class="st185 st186">Durante pruebas </tspan><tspan x="0" y="18" class="st185 st186">militares, bombas </tspan><tspan x="0" y="36" class="st185 st186">atmicas estallan </tspan><tspan x="0" y="54" class="st185 st186">sobre una </tspan><tspan x="0" y="72" class="st185 st186">isla en el Pacfico</tspan></text>
<text transform="matrix(1 0 0 1 49.9994 321.8911)"><tspan x="0" y="0" class="st185 st186">Godzilla es un monstruo</tspan><tspan x="0" y="18" class="st185 st186"> marino prehistrico</tspan><tspan x="0" y="36" class="st185 st186"> despertado y empoderado</tspan><tspan x="0" y="54" class="st185 st186"> por la radiacin nuclear.</tspan></text>
<text transform="matrix(1 0 0 1 49.6843 616.9541)"><tspan x="0" y="0" class="st185 st186">Godzilla es una alegora que representa las relaciones</tspan><tspan x="0" y="18" class="st185 st186">entre Japn y Estados Unidos. Primero es enemigo</tspan><tspan x="0" y="36" class="st185 st186">de Japn y ataca y destruye sus ciudades, luego es amigo</tspan><tspan x="0" y="54" class="st185 st186">y defensor del pas.</tspan></text>
</svg>
